<?xml version="1.0" encoding="UTF-8"?>
<svg width="162px" height="215px" viewBox="0 0 162 215" version="1.1" xmlns="http://www.w3.org/2000/svg" xmlns:xlink="http://www.w3.org/1999/xlink">
    <title>409854571-f633417d-38e2-434c-9240-ee779d56a7d4</title>
    <desc>Created with Sketch.</desc>
    <defs></defs>
    <g id="Page-1" stroke="none" stroke-width="1" fill="none" fill-rule="evenodd">
        <g id="409854571-f633417d-38e2-434c-9240-ee779d56a7d4" fill-rule="nonzero">
            <path d="M44.22,92.51 C46.9,89.26 49.54,86.01 52.8,83.45 C56.08,80.87 59.02,77.79 62.94,76.09 C63.82,75.71 64.69,75.3 65.59,74.97 C65.99,74.82 66.51,74.7 66.82,75.11 C67.15,75.54 66.79,75.9 66.54,76.28 C65.8,77.39 64.76,78.23 63.89,79.21 C63.62,79.52 63.23,79.75 63.06,80.39 C65.13,79.19 67.18,78.36 69.37,77.9 C70.87,77.59 72.37,77.44 73.89,77.61 C74.33,77.66 74.91,77.63 75.05,78.25 C75.19,78.89 74.63,79.02 74.23,79.26 C73.26,79.85 72.15,80.21 71.07,81.24 C73.74,80.59 76.15,80.25 78.59,80.7 C79.06,80.79 79.54,80.85 80,80.98 C80.4,81.09 80.97,81.08 80.97,81.68 C80.97,82.21 80.5,82.36 80.05,82.48 C78.19,82.96 76.43,83.72 74.67,84.48 C74.45,84.57 74.22,84.62 74.06,84.97 C75.56,84.88 77,84.56 78.44,84.95 C78.67,85.01 78.91,85.05 79.14,85.12 C79.57,85.26 80.02,85.43 79.99,85.98 C79.96,86.45 79.56,86.59 79.15,86.71 C76.26,87.53 73.53,88.76 70.82,90.03 C70.65,90.11 70.48,90.22 70.1,90.44 C71.17,90.56 72,90.67 72.84,90.76 C73.29,90.81 73.7,90.93 74.06,91.2 C74.87,91.8 74.9,92.76 73.98,93.09 C68.3,95.13 63.22,98.54 57.42,100.29 C57.34,100.31 57.27,100.34 57.19,100.35 C54.77,100.42 53.34,101.83 52.13,103.77 C50.87,105.8 49.41,107.71 47.98,109.63 C47.56,110.2 47.44,110.74 47.54,111.4 C47.94,114.22 47.95,117.05 47.77,119.89 C47.7,121.11 47.23,121.97 46.04,122.32 C45.06,122.61 44.69,123.22 44.65,124.23 C44.47,128.33 42.88,132.07 41.53,135.86 C41.06,137.19 40.03,137.77 39.08,137.41 C38.06,137.03 37.74,136.09 38.15,134.68 C39.08,131.42 40.63,128.36 41.12,124.97 C41.14,124.82 41.16,124.66 41.2,124.37 C40.06,124.69 39.09,125.18 38.15,125.72 C35.09,127.45 32.04,129.26 28.78,130.52 C22.21,133.04 15.54,135.18 8.3,134.55 C6.11,134.36 3.94,134.09 1.79,133.67 C0.55,133.43 6.66133815e-16,132.58 0.38,131.4 C1.15,129.04 1.45,126.56 2.18,124.2 C2.92,121.81 3.96,119.51 4.91,117.18 C5.54,115.63 6.08,114.04 6.64,112.47 C7.48,110.14 9.09,108.25 10.69,106.44 C15.61,100.86 20.97,95.71 26.7,90.98 C30.6,87.76 34.81,84.94 39.35,82.62 C42.36,81.07 45.07,78.96 48.15,77.51 C50.49,76.41 52.85,75.36 55.23,74.28 C55.13,73.82 54.71,73.83 54.4,73.81 C50.19,73.59 47.16,71.33 44.68,68.16 C44.04,67.35 43.55,67.26 42.6,67.7 C38.51,69.59 34.28,70.44 29.82,69.1 C28.8,68.79 27.86,68.36 27.24,67.47 C26.9,66.99 26.56,66.86 26.03,67.13 C24.68,67.83 23.36,67.32 22.11,66.87 C21.19,66.54 21.15,65.5 21.21,64.69 C21.46,61.42 22.32,58.39 25.09,56.25 C25.86,55.66 26.39,54.85 27.03,54.14 C27.54,53.58 28,52.95 28.84,52.85 C29.25,52.8 29.42,52.45 29.63,52.17 C31.47,49.73 32.85,47.04 33.9,44.1798 C34.94,41.3298 36.05,38.4998 37.46,35.8098 C40.08,30.8098 43.65,26.6398 48.8,24.1698 C51.44,22.9098 54.38,22.3098 57.28,21.7098 C59.53,21.2398 61.87,21.2698 64.01,20.2298 C65.39,19.5598 66.48,18.6098 67.42,17.4598 C68.63,15.9798 69.69,14.4198 70.65,12.7398 C72.66,9.2398 75.43,6.3298 79.75,6.2498 C81.4,6.2198 82.29,5.3198 83.53,4.8198 C85.77,3.9098 88.09,3.4398 90.62,3.5498 C90.42,2.7898 89.65,2.3198 89.69,1.5298 C89.71,1.2598 89.63,0.9198 89.91,0.7698 C90.18,0.6198 90.43,0.7998 90.68,0.9498 C91.47,1.4498 92.03,2.1698 92.6,3.0298 C93.34,2.2698 93.57,1.1098 94.73,0.7398 C94.81,1.6298 94.27,2.1998 94.09,2.8698 C94.01,3.1598 93.74,3.4798 94.01,3.7598 C94.27,4.0398 94.59,3.8098 94.9,3.7298 C97.29,3.0898 99.66,2.3798 102.19,2.6898 C105.65,3.0998 108.36,4.7298 110.23,7.6598 C110.6,8.2398 110.77,8.4698 111.54,8.3598 C113.17,8.1198 114.81,8.3298 116.31,9.1298 C117.54,9.7898 117.56,9.9498 116.62,10.9298 C114.69,12.9298 113.26,15.2798 111.86,17.6598 C111.75,17.8398 111.57,18.0598 111.7,18.3198 C112.14,18.4598 112.15,18.0598 112.25,17.8698 C114.61,13.3798 117.83,9.7098 122.3,7.2098 C122.71,6.9798 123.09,6.5898 123.61,6.8698 C124.15,7.1598 124.04,7.6798 123.97,8.1498 C123.34,12.3098 121.87,16.0098 118.22,18.4898 C116.97,19.3398 115.53,19.6898 114.07,19.9298 C113.75,19.9798 113.18,19.8298 113.23,20.3198 C113.28,20.7698 113.8,20.5598 114.14,20.5398 C118.17,20.2198 120.78,17.8298 122.65,14.5098 C123.17,13.5898 123.6,13.3598 124.46,13.9498 C124.92,14.2598 125.45,14.4698 125.92,14.7798 C127.82,16.0298 129.75,17.2198 131.83,18.1698 C133.42,18.8898 134.51,20.1198 135.46,21.5298 C137.49,24.5298 139.18,27.7398 141.51,30.5798 C143.67,33.2098 146.31,35.0498 149.33,36.3198 C152,37.4498 153.64,39.1398 154.19,42.0198 C154.59,44.1098 155.13,46.17 154.8,48.3 C154.59,49.65 155.02,50.74 155.66,51.86 C157.12,54.42 158.53,56.98 160.56,59.19 C162.18,60.95 161.68,64.04 159.17,65.07 C157.3,65.84 155.37,66.35 153.4,66.62 C149.79,67.11 146.71,68.69 143.87,70.82 C140.59,73.28 137.08,73.88 133.02,73.01 C130.38,72.44 127.59,72.2 124.79,72.43 C126.13,72.85 127.47,73.26 128.8,73.7 C134.1,75.46 138.03,78.76 140.44,83.88 C141.98,87.17 143.8,90.32 145.3,93.63 C146.15,95.5 146.66,97.53 147.25,99.51 C148.35,103.18 150.14,106.63 150.95,110.38 C151.63,113.48 153.55,116.02 154.48,118.99 C155.18,121.23 155.82,123.5 156.85,125.63 C157,125.94 157.1,126.34 157.07,126.68 C156.79,129.47 157.22,132.27 156.96,135.07 C156.84,136.41 156.12,137.44 155.3,138.44 C152.74,141.57 149.27,143.65 146.33,146.33 C142.13,150.14 137.42,153.18 132.74,156.31 C130.86,157.57 129.32,159.32 127.31,160.42 C127.01,160.58 127.02,160.96 126.93,161.27 C126.03,164.5 125.68,167.84 124.97,171.12 C124.47,173.44 123.29,175.41 122.32,177.5 C122.12,177.93 121.7,178.13 121.21,178.03 C120.64,177.92 120.47,177.46 120.38,176.98 C120.02,175.14 119.76,173.28 119.71,171.2 C118.72,172.3 118.28,173.53 117.66,174.64 C116.33,177.05 115.12,179.53 113.43,181.73 C113.02,182.26 112.69,183.13 111.77,182.77 C110.97,182.45 111.14,181.64 111.16,180.98 C111.29,177.96 112.15,175.08 112.89,172.18 C112.93,172.03 112.96,171.88 112.91,171.66 C111.33,174.08 109.24,176.07 107.61,178.43 C107.16,179.09 106.66,179.72 106.03,180.22 C105.58,180.58 105.09,180.89 104.5,180.52 C103.93,180.17 103.93,179.61 104.07,179.03 C104.52,177.15 105.34,175.42 106.15,173.68 C106.84,172.22 107.57,170.78 108.23,169.27 C106.11,171.26 103.4,172.35 101.14,174.1 C100.74,174.41 100.32,174.88 99.77,174.46 C99.17,174 99.54,173.44 99.77,172.95 C101.48,169.19 103.68,165.72 105.98,162.31 C106.29,161.85 106.61,161.4 107.13,160.66 C104.99,161.65 103.22,162.76 101.25,163.28 C97.21,164.33 95,167.63 92.3,170.33 C92.04,170.59 91.91,170.87 91.96,171.29 C92.14,172.83 91.56,173.42 89.99,173.28 C86.93,173.01 83.86,172.94 80.86,172.11 C78.35,171.42 75.77,171.1 73.18,170.85 C70.46,170.59 67.92,169.51 65.23,169.12 C64.48,169.01 63.73,168.93 62.97,168.92 C61.59,168.89 61.05,168.33 61.01,166.93 C60.89,162.19 61.93,157.57 62.5,152.9 C62.53,152.66 62.59,152.43 62.62,152.19 C62.84,150.69 62.2667,149.556 60.9,148.79 C60.35,148.48 60.04,148.04 59.92,147.38 C59.41,144.54 59.27,141.66 59.28,138.79 C59.28,137.77 59.08,137.36 57.98,137.41 C56.61,137.47 56.27,136.97 56.61,135.65 C56.8,134.92 56.9,134.13 57.25,133.47 C57.76,132.51 57.31,132.25 56.53,131.94 C54.89,131.3 54.84,130.95 55.64,129.35 C56.33,127.95 57.04,126.58 57.91,125.28 C58.17,124.89 58.15,124.56 57.85,124.2 C57.17,123.36 56.61,122.43 55.73,121.77 C55.21,121.39 55.04,120.94 55.28,120.32 C57.27,115.27 58.74,110.04 60.53,104.91 C61.14,103.17 62.67,102.27 64,101.23 C66.16,99.53 68.66,98.51 71.35,97.92 C72.87,97.59 74.35,97.08 75.83,96.6 C76.42,96.41 76.9,96.41 77.39,96.81 C80.89,99.64 83.82,103.11 87.42,105.84 C87.83,106.15 88.21,106.56 88.21,107.13 C88.21,110.69 89.69,113.89 90.68,117.2 C91.15,118.77 91.69,120.31 92.21,121.86 C92.46,122.61 92.46,123.34 92.17,124.08 C91.81,125.01 91.49,125.96 91.1,126.88 C90.93,127.3 90.82,127.53 91.45,127.5 C92.12,127.47 92.26,128.08 92.45,128.54 C94,132.22 95.45,135.94 97.21,139.53 C97.61,140.35 97.97,141.2 98.34,142.04 C98.69,142.85 99.03,143.62 98.72,144.57 C98.52,145.18 98.94,145.82 99.17,146.4 C100.28,149.22 101.44,152.02 102.62,154.81 C102.82,155.29 103,155.75 103.1,156.47 C104.28,155.22 105.36,154.07 106.43,152.92 C108.55,150.64 110.64,148.34 112.79,146.09 C113.26,145.6 113.34,145.23 113.01,144.64 C112.6,143.91 112.25,143.14 111.97,142.35 C111.45,140.86 111.95,139.95 113.48,139.6 C114.04,139.47 114.55,139.28 115,138.94 C116.69,137.66 118.81,137.11 120.43,135.7 C121.1,135.12 121.29,134.59 121.19,133.68 C120.53,127.79 120.62,121.88 120.88,115.97 C120.96,114.13 121.07,112.3 121.37,110.48 C121.46,109.93 121.3,109.48 121.02,109.02 C119.48,106.4 118.05,103.72 116.84,100.94 C116.59,100.36 116.37,99.75 116.2,99.14 C116.04,98.51 116.19,97.9 116.8,97.59 C117.44,97.26 118.04,97.42 118.53,97.96 C119.55,99.1 120.26,100.45 121.02,101.77 C125.27,109.13 129.67,116.41 134.23,123.58 C134.85,124.55 135.61,125.43 136.13,126.47 C136.77,127.75 136.66,128.54 135.76,129.64 C134.05,131.72 131.51,132.71 129.51,134.42 C125.55,137.8 120.71,139.72 116.16,142.13 C115.52,142.47 115.35,142.64 115.76,143.28 C117.33,145.77 119.28,147.91 121.51,149.8 C123.52,151.51 125.57,153.17 127.55,154.9 C128.14,155.41 128.44,155.43 129.12,154.94 C133.59,151.67 137.6,147.82 142.48,145.06 C146.14,142.99 149.1,139.94 151.62,136.52 C153.08,134.54 153.02,132.33 152.73,130.09 C151.92,123.91 149.75,118.08 147.93,112.18 C145.89,105.56 144.01,98.86 140.91,92.61 C139.46,89.68 137.86,86.82 136.4,83.88 C134.49,80.03 131.17,77.92 127.3,76.6 C122.5,74.96 117.64,73.53 112.63,72.63 C111.61,72.45 111.14,72.05 111.07,70.95 C110.98,69.49 110.42,68.99 109,68.77 C107.26,68.49 105.51,68.25 103.75,68.55 C102.9,68.69 102.55,68.39 102.4,67.54 C101.89,64.68 101.96,61.8 102.11,58.93 C102.19,57.45 101.86,56.03 101.75,54.36 C99.82,55.99 97.43,56.47 95.39,57.72 C93.47,58.9 91.38,59.81 89.03,59.27 C87.05,58.81 85.1,58.19 83.4,57.01 C83.11,56.81 82.8,56.64 82.23,56.31 C82.65,58.21 82.5,59.87 82.26,61.53 C81.98,63.47 81.67,65.4 80.94,67.23 C80.67,67.9 80.37,68.26 79.53,68.06 C76.27,67.29 73.02,67.67 69.78,68.29 C66.94,68.83 66.12,70.06 66.82,72.82 C67.04,73.7 66.41,73.67 65.99,73.78 C62.93,74.56 59.89,75.4 56.96,76.55 C51.83,78.56 46.84,80.79 42.27,83.99 C39.5,85.92 36.63,87.74 33.78,89.57 C29.76,92.15 26.3,95.41 22.71,98.51 C19.19,101.55 15.99,104.89 12.85,108.29 C10.96,110.33 9.27,112.52 8.55,115.37 C8.03,117.44 7.11,119.43 6.27,121.41 C5.1,124.15 4.53,127.04 3.9,129.92 C3.74,130.66 3.93,130.83 4.59,130.88 C9.27,131.28 13.9,131.3 18.49,130.02 C23.39,128.65 28.15,126.97 32.61,124.48 C33.34,124.07 33.56,123.63 33.6,122.8 C33.92,115.92 32.95,109.08 33.06,102.21 C33.06,101.84 33.24,101.3 32.83,101.12 C32.45,100.95 32.13,101.39 31.81,101.61 C28.36,103.99 24.92,106.38 21.48,108.76 C21.25,108.92 21.02,109.08 20.77,109.21 C19.88,109.66 19.02,109.64 18.43,108.78 C17.88,107.98 18.08,107.13 18.84,106.54 C20.14,105.54 21.46,104.57 22.83,103.68 C27.08,100.91 31.11,97.82 35.26,94.92 C36.96,93.73 38.72,92.62 40.5,91.56 C42.25,90.52 43.05,90.75 44.22,92.51 Z M90.62,128.07 C89.76,130.05 88.85,131.61 88.33,133.34 C88.08,134.16 87.53,134.54 86.69,134.33 C85.81,134.11 85.79,133.38 85.91,132.69 C86.07,131.75 86.26,130.82 86.71,129.94 C87.67,128.06 88.55,126.13 89.47,124.22 C89.83,123.47 89.85,122.78 89.59,121.94 C88.18,117.41 86.4,112.97 86,108.18 C85.98,107.9 85.92,107.64 85.67,107.45 C82.83,105.3 80.14,103 77.84,100.26 C76.82,99.04 75.59,98.59 74.06,99.42 C73.65,99.64 73.15,99.73 72.68,99.81 C69.19,100.41 66.27,102.16 63.51,104.27 C63.1,104.58 62.94,104.98 62.81,105.47 C61.6,109.98 60.37,114.5 58.16,118.65 C57.51,119.87 57.32,120.69 58.54,121.61 C59.12,122.05 59.45,122.81 59.92,123.41 C60.56,124.22 60.51,124.97 59.92,125.81 C59.09,126.98 58.3,128.19 57.68,129.49 C57.46,129.96 57.44,130.23 57.99,130.52 C60.07,131.63 60.06,131.65 59.26,133.85 C59.19,134.04 59.14,134.23 59.05,134.41 C58.74,135.06 58.85,135.38 59.65,135.5 C60.7,135.66 61.54,136.09 61.44,137.44 C61.21,140.37 61.73,143.26 61.92,146.16 C61.94,146.51 61.99,146.88 62.37,147.08 C64.01,147.93 65.53,149.23 67.6,148.04 C68.3,147.64 69.21,147.62 70.01,147.35 C73.11,146.33 76.28,145.47 78.4,142.63 C79.86,140.68 81.52,138.88 83.12,137.04 C83.7,136.37 84.46,135.83 85.3,136.54 C86.16,137.27 85.66,138.01 85.06,138.71 C83.6,140.4 82.19,142.13 80.73,143.82 C79.24,145.54 77.69,147.12 75.48,148.05 C72.46,149.32 69.25,149.78 66.13,150.57 C65.39,150.76 65.15,151.07 65.1,151.75 C64.99,153.18 64.83,154.61 64.68,156.04 C64.35,159.02 64.01,162 63.68,164.97 C63.62,165.5 63.57,165.96 64.35,166.08 C69.47,166.87 74.48,168.23 79.63,168.89 C82.23,169.22 84.77,169.94 87.44,169.92 C88.63,169.92 88.56,169.47 88.33,168.7 C87.61,166.34 87.22,163.88 86.38,161.55 C86.16,160.94 86.01,160.29 86.37,159.69 C87.17,158.36 87.87,156.97 88.72,155.66 C90.92,152.24 93.27,148.9 94.97,145.18 C95.48,144.07 95.92,143.06 95.27,141.7 C93.23,137.45 91.57,133.04 90.64,128.05 L90.62,128.07 Z M74.55,21.1498 C73.78,21.9498 73.62,22.9498 73.53,23.9798 C73.34,26.2398 72.81,28.4798 73.01,30.7798 C73.59,37.1798 75.46,43.2098 78.12,49.02 C78.73,50.34 79.52,51.61 80.59,52.51 C83.3,54.81 86.43,56.35 89.92,57.18 C90.83,57.4 91.7,57.41 92.48,56.99 C95.68,55.29 99.02,53.82 101.81,51.44 C102.34,50.99 102.7,50.48 102.94,49.8 C104.41,45.6098 106.26,41.5398 108.65,37.8298 C109.95,35.8098 110.66,33.8398 110.88,31.5498 C111.04,29.9698 111.23,28.3998 111.87,26.8998 C112.45,25.5498 112.84,24.1098 113.18,22.6798 C113.35,21.9698 113.4,21.9198 114.03,22.3398 C118.86,25.5798 123.7,24.9998 128.69,22.1998 C128.53,22.1298 128.42,22.0998 128.32,22.0398 C127.39,21.3798 127.5,22.6298 126.97,22.7798 C125.9,23.0798 124.87,23.5598 123.79,23.8098 C120.41,24.5998 117.32,23.8698 114.44,21.9698 C113.91,21.6198 113.42,21.0898 112.93,21.0698 C112.3,23.2598 112.06,25.4198 111.14,27.4198 C111.03,27.6598 110.8,27.8598 110.59,28.0498 C109.46,29.0698 108.25,29.9998 106.9,30.6798 C103.62,32.3298 100.06,32.7698 96.52,32.1998 C93.91,31.7898 91.29,31.6598 88.69,31.2798 C88.38,31.2398 88.08,31.0998 87.92,31.5698 C87.27,33.5298 86.58,35.4898 85.92,37.4498 C85.76,37.9198 85.88,38.3198 86.34,38.5698 C87.26,39.0598 88.61,38.5098 88.94,37.4898 C89.03,37.2098 89.1,36.9498 89.4,36.8498 C89.73,36.7498 89.9,36.9798 90.08,37.2098 C90.69,37.9798 91.26,37.9198 91.88,37.0098 C91.64,36.9498 91.41,36.9098 91.19,36.8398 C90.83,36.7198 90.54,36.5498 90.56,36.0898 C90.59,35.5298 91.03,35.4498 91.4,35.4298 C92.09,35.3898 92.8,35.4898 93.13,36.2298 C93.43,36.8898 93.17,37.4498 92.7,37.9698 C92.23,38.4898 91.66,38.7198 90.99,38.6698 C90.29,38.6098 89.69,38.7998 89.06,39.1198 C87.3,40.0098 86.25,39.7398 84.75,38.1798 C84.65,38.0798 84.48,38.0098 84.34,37.9898 C83.46,37.8898 83.06,37.3698 83.14,36.5198 C83.22,35.5798 83.74,34.9198 84.7,34.8398 C85.2,34.7998 85.5,34.7298 85.67,34.2098 C85.99,33.2298 86.37,32.2598 86.73,31.2898 C86.4,30.9898 85.98,31.0698 85.59,31.0398 C82.64,30.8598 79.69,30.7698 76.76,30.4898 C74.48,30.2798 74.03,29.5898 74.09,27.2598 C74.14,25.2198 74.31,23.1998 74.53,21.1598 L74.55,21.1498 Z M107.41,175.26 C107.5,175.32 107.58,175.37 107.67,175.43 C110.07,172.46 112.49,169.49 114.54,166.25 C114.85,165.76 115.21,165.12 115.95,165.46 C116.65,165.79 116.46,166.46 116.3,167.04 C115.67,169.22 115,171.4 114.4,173.59 C114.03,174.94 113.57,176.28 113.48,178.01 C113.79,177.56 113.95,177.39 114.05,177.18 C115.74,173.48 118.08,170.11 119.48,166.26 C119.68,165.72 120.06,165.37 120.66,165.45 C121.26,165.53 121.51,165.99 121.54,166.56 C121.56,166.84 121.58,167.12 121.59,167.4 C121.69,169.35 121.64,171.3 121.91,173.25 C122.21,173.18 122.18,172.94 122.25,172.77 C123.89,168.41 124.18,163.73 125.49,159.29 C125.72,158.5 125.64,157.75 124.81,157.02 C121.38,153.99 117.53,151.4 114.85,147.58 C114.38,146.91 114.12,147.32 113.79,147.67 C110.18,151.46 106.56,155.23 102.98,159.04 C102.29,159.77 101.52,160.46 101.07,161.41 C101.4,161.59 101.6,161.4 101.81,161.31 C104.47,160.26 106.85,158.75 109.17,157.09 C109.68,156.73 110.29,156.24 110.87,156.88 C111.41,157.46 110.92,157.97 110.54,158.45 C108.86,160.63 107.3,162.9 105.85,165.24 C104.67,167.15 103.45,169.04 102.38,171.33 C103.74,170.58 104.82,169.93 105.78,169.1 C107.39,167.72 108.99,166.34 110.6,164.97 C111.03,164.6 111.51,164.4 112,164.81 C112.47,165.2 112.26,165.67 112.02,166.11 C111.14,167.81 110.25,169.5 109.39,171.21 C108.72,172.55 108.08,173.9 107.43,175.25 L107.41,175.26 Z M47.14,106.69 C48.75,104.51 50.16,102.59 51.58,100.68 C52.22,99.81 52.82,98.86 53.99,98.65 C60.12,97.56 65.34,94.18 71.04,91.94 C69.19,91.67 67.43,91.99 65.71,92.64 C65.27,92.81 64.83,92.98 64.56,92.46 C64.3,91.95 64.66,91.63 65.06,91.4 C66.28,90.71 67.48,89.99 68.74,89.39 C70.98,88.32 73.26,87.32 75.52,86.3 C72.49,86.67 69.55,87.36 66.71,88.46 C66.17,88.67 65.64,88.94 65.23,88.31 C64.81,87.65 65.34,87.27 65.75,86.91 C65.98,86.7 66.29,86.57 66.57,86.42 C69.08,85.11 71.66,83.96 74.27,82.86 C75.07,82.52 75.99,82.39 76.79,81.69 C75.75,81.66 74.88,81.78 74.03,81.96 C70.74,82.67 67.56,83.68 64.65,85.44 C64.17,85.73 63.65,85.88 63.25,85.36 C62.84,84.82 63.17,84.4 63.59,84.02 C64.19,83.49 64.82,83.02 65.51,82.59 C67.33,81.46 69.12,80.29 70.92,79.13 C69.15,79.32 67.44,79.71 65.89,80.52 C63.24,81.92 60.58,83.31 58.32,85.33 C57.89,85.71 57.41,85.92 56.94,85.46 C56.48,85.01 56.77,84.58 57.1,84.2 C57.42,83.84 57.75,83.49 58.07,83.14 C59.74,81.34 61.41,79.55 63.08,77.75 C62.5,77.88 61.99,78.11 61.6,78.47 C58.15,81.62 54.23,84.24 51.15,87.79 C49.21,90.02 46.91,91.92 45.26,94.41 C45.04,94.74 44.73,95 44.88,95.47 C46.01,99.01 46.5,102.69 47.13,106.71 L47.14,106.69 Z M44.18,116.08 C44.27,114.13 43.85,112.04 43.64,109.94 C43.18,105.29 42.57,100.67 41.29,96.15 C41.08,95.4 40.92,95.27 40.2,95.69 C38.4,96.74 36.85,98.14 35.1,99.25 C34.61,99.56 34.4,99.95 34.54,100.55 C34.83,101.81 34.77,103.09 34.81,104.37 C34.99,110.2 35.93,115.98 35.85,121.82 C35.84,122.63 36.2,122.52 36.73,122.27 C38.32,121.53 39.91,120.77 41.53,120.11 C44.15,119.04 44.17,119.07 44.17,116.08 L44.18,116.08 Z M138.41,59.65 C138.61,58.95 138.75,58.41 138.93,57.89 C139.46,56.34 140.25,55.83 141.82,56.19 C142.46,56.34 142.52,55.96 142.79,55.62 C143.84,54.28 145.59,53.78 146.66,52.43 C146.75,52.31 147.05,52.29 147.23,52.32 C147.86,52.42 148.15,52.19 148.32,51.56 C148.51,50.83 149.03,50.08 149.8,50.23 C151.09,50.49 151.15,49.43 151.65,48.84 C151.91,48.53 151.86,48.13 151.67,47.82 C151.39,47.37 151.15,47.87 150.89,47.92 C150.53,47.99 150.18,48.01 149.83,47.86 C149.54,47.73 149.3,47.73 149.15,48.08 C148.7,49.09 147.94,49.3 146.88,49.11 C146.29,49.01 145.6,49.11 145.06,49.37 C144.87,49.46 145.02,50.25 144.98,50.72 C144.89,51.83 144.35,52.54 143.18,52.52 C142.65,52.52 142.45,52.69 142.21,53.15 C141.77,54.02 140.96,54.36 140.1,53.88 C139.5,53.55 139.41,53.74 139.24,54.24 C138.94,55.12 138.32,55.51 137.38,55.3 C137.16,55.25 136.94,55.08 136.71,55.29 C135.72,56.17 134.97,55.6 134.21,54.79 C133.88,55.79 132.89,55.7 132.22,56.13 C130.68,57.13 130.44,57.15 129.37,55.74 C128.27,57.15 127.98,57.16 126.65,56.68 C125.61,56.31 124.36,56.43 123.99,54.84 C123.39,55.98 123.3,57.47 121.83,57.15 C120.09,56.78 120.65,55.1 120.41,53.75 C120.24,54.03 120.16,54.15 120.09,54.28 C119.15,56.04 118.73,56.11 117.19,54.82 C117.1,54.75 117.01,54.67 116.9,54.63 C114.83,53.96 114.7,53.77 114.95,51.66 C115,51.22 115.09,50.79 115.14,50.36 C115.19,49.97 115.36,49.56 115.07,49.12 C113.73,51.68 113.43,52.02 112.58,51.73 C111.39,51.34 111.49,50.32 111.57,49.28 C110.68,50.26 110.68,50.26 109.19,50.32 C108.56,50.35 108.28,50.76 108.25,51.33 C108.22,51.94 108.25,52.55 108.25,53.3 C109.277,52.466 110.26,52.426 111.2,53.18 C111.34,53.29 111.56,53.32 111.75,53.34 C112.6,53.41 113.1,53.91 113.18,54.7 C113.31,55.99 114.61,56.37 115.24,56.39 C116.64,56.44 116.79,57.26 117.05,58.18 C117.15,58.54 116.97,58.96 117.29,59.33 C118.41,58.59 119.51,58 120.33,59.7 C120.48,60.02 120.71,59.76 120.9,59.63 C122.54,58.48 123.05,58.61 124.06,60.55 C124.57,59.39 125.89,59.72 126.62,58.94 C127.74,57.74 128.79,57.81 129.61,59.19 C129.97,59.8 130.12,59.78 130.61,59.33 C131.72,58.3 132.22,58.3 133.49,59.3 C133.95,59.66 134.07,59.39 134.32,59.1 C135.37,57.87 136.36,57.8 137.61,58.86 C137.85,59.06 138.07,59.29 138.44,59.65 L138.41,59.65 Z M96.83,147.03 C95.06,150.86 92.79,154.15 90.54,157.42 C89.32,159.2 88.72,160.79 89.67,162.91 C90.3,164.3 90.49,165.88 90.91,167.53 C92.72,165.85 94.37,164.31 96.04,162.77 C96.68,162.18 97.31,161.48 98.34,161.94 C98.55,162.03 98.74,161.93 98.85,161.75 C99.81,160.16 101.06,158.77 102.36,157.27 C100.55,157.1 100.04,155.83 99.57,154.6 C98.64,152.15 97.77,149.67 96.82,147.03 L96.83,147.03 Z M68.27,49.96 C67.93,51 67.51,51.77 66.45,51.51 C65.35,51.24 65.29,50.37 65.46,49.4 C65.68,48.13 65.82,46.85 66,45.5698 C65.15,47.05 64.55,48.59 63.93,50.13 C63.59,50.96 63.02,51.45 62.06,51.16 C61.12,50.88 61.03,50.11 61.15,49.33 C61.24,48.76 61.47,48.22 61.67,47.58 C59.79,48.68 59.14,48.25 58.9,45.7398 C58.39,46.44 57.98,47.06 57.52,47.64 C57.04,48.24 56.44,48.66 55.65,48.27 C54.85,47.89 54.68,47.22 54.86,46.36 C55,45.6898 55.45,45.0798 55.34,44.2998 C53.6,45.7498 53.59,45.7598 51.16,44.3598 C50.17,43.7898 50.29,42.8898 50.69,41.9198 C49.86,42.0898 49.21,42.0498 48.78,41.3598 C48.05,40.1898 49.16,39.4598 49.48,38.5198 C48.28,38.2598 47.54,37.6798 47.94,36.3398 C48.01,36.1098 47.91,35.9898 47.78,35.8198 C46.69,34.4798 46.69,34.2698 47.9,32.9698 C48.38,32.4598 48.36,31.8798 47.69,31.8798 C46.11,31.8798 45.67,31.0798 45.86,29.5598 C43.6,31.1798 42.17,33.2598 40.86,35.4498 C41.93,34.5998 42.9,33.6598 43.91,32.7498 C44.38,32.3298 44.95,32.1298 45.57,32.4698 C46.2,32.8098 46.16,33.4498 46.02,33.9598 C45.79,34.7898 45.42,35.4998 46.38,36.1898 C46.81,36.4998 46.51,37.1498 46.23,37.6198 C45.88,38.2098 45.38,38.7098 45.15,39.4698 C45.51,39.2498 45.79,39.0898 46.05,38.9098 C46.51,38.5998 46.96,38.6098 47.36,38.9998 C47.8,39.4298 47.77,39.9398 47.43,40.4098 C47.22,40.6998 46.94,40.9298 46.69,41.1898 C45.63,42.2798 44.86,43.5298 44.48,45.2498 C45.5,44.4698 46.33,43.7998 47.2,43.1998 C47.72,42.8398 48.36,42.4498 48.92,43.0898 C49.49,43.7398 48.97,44.2498 48.58,44.7698 C47.87,45.6998 47.43,46.75 46.97,48.06 C48.47,47.36 49.7,46.79 50.93,46.21 C51.49,45.9498 52.23,45.6398 52.55,46.28 C53.1,47.37 54.27,47.56 55.07,48.26 C55.46,48.6 55.53,49.27 56.23,49.32 C57.22,49.39 57.23,50.08 56.95,50.79 C56.79,51.18 56.55,51.53 56.51,51.98 C57.06,52 57.47,51.3 57.78,51.61 C58.69,52.51 59.75,51.83 60.67,52.05 C61.45,52.24 62.06,52.9 63,52.86 C63.55,52.83 63.63,53.49 63.71,53.96 C63.78,54.32 63.53,54.73 63.91,55.13 C64,54.91 64.05,54.77 64.11,54.62 C64.36,54 64.71,53.5 65.48,53.49 C66.34,53.48 66.64,54.07 66.9,54.72 C67.06,55.13 67.19,55.55 67.34,55.96 C67.62,56.75 67.69,57.63 68.41,58.4 C68.67,57.07 68.82,55.88 69.14,54.74 C69.6,53.1 70.85,52.8 72.12,53.93 C72.23,54.03 72.36,54.11 72.55,54.25 C72.9,53.12 73.41,52.2 74.36,51.59 C74.85,51.28 74.74,50.84 74.52,50.43 C74.38,50.18 74.25,49.64 73.92,49.86 C72.66,50.7 71.96,50.04 71.33,48.91 C71.11,50.03 71.64,51.4 70.13,51.72 C69,51.96 68.65,51.03 68.29,49.94 L68.27,49.96 Z M123.35,113.42 C123.29,113.84 123.24,114.04 123.24,114.23 C123.26,118.3 123.26,122.36 123.3,126.43 C123.32,128.3 123.21,130.18 123.5,132.04 C123.62,132.82 123.77,133.16 124.55,132.53 C126.6,130.89 128.68,129.29 130.77,127.7 C131.39,127.23 131.34,126.84 130.95,126.21 C129.14,123.3 127.38,120.36 125.62,117.42 C124.87,116.16 124.43,114.72 123.35,113.42 Z M123.3,37.2398 C123.17,37.7198 123.26,38.1798 123.01,38.5498 C122.78,38.8998 122.45,39.1298 122,39.0598 C121.35,38.9498 120.93,38.5798 120.75,37.9298 C120.47,36.9298 120.43,35.8498 119.72,34.6198 C119.83,35.5798 119.93,36.2098 119.97,36.8398 C120.01,37.4298 119.92,38.0098 119.2,38.1298 C118.49,38.2498 118.05,37.8998 117.9,37.2098 C117.67,36.1698 117.46,35.1398 117.22,34.0098 C116.96,34.7298 117.07,35.6698 116.06,35.6698 C114.95,35.6698 115.07,34.6498 114.82,33.9098 C114.43,34.3398 114.05,34.5998 113.46,34.6098 C112.79,34.6098 112.92,35.3398 112.87,35.7398 C112.81,36.1798 113.3,36.1098 113.59,36.0798 C114.41,35.9798 115.23,36.2198 115.24,37.0398 C115.25,38.2998 115.73,39.1198 116.6,39.9598 C116.97,40.3198 117.09,40.5098 117.58,40.2998 C117.98,40.1298 118.41,40.0298 118.84,39.9298 C119.5,39.7798 120.09,39.9398 120.25,40.6598 C120.4,41.3198 120.67,41.5898 121.35,41.4698 C121.51,41.4398 121.78,41.5698 121.87,41.7098 C122.35,42.3998 122.71,42.0698 123.17,41.6598 C123.73,41.1798 124.37,41.1098 125.04,41.5498 C125.99,42.1798 127.04,41.6098 128.01,41.5798 C128.4,41.5698 129.43,41.3898 129.74,40.6398 C130.29,39.3098 131.67,38.6998 132.37,37.4898 C132.56,37.1598 133.07,37.0998 133.46,37.0898 C133.93,37.0898 134.18,36.9598 134.25,36.4398 C134.42,35.2398 135.4,34.3898 136.14,33.7098 C136.81,33.0898 137.18,32.4198 137.65,31.7298 C138.06,31.1198 137.75,30.5498 137.37,30.2598 C136.9,29.8898 136.52,30.3698 136.31,30.8198 C136.13,31.1898 135.92,31.6098 135.5,31.6398 C134.5,31.7298 134.67,32.2498 134.87,32.9198 C135.14,33.8098 134.96,34.5998 134.02,35.0098 C133.62,35.1898 133.44,35.4198 133.32,35.8598 C132.99,37.0398 132.09,37.3698 131.01,36.8098 C130.74,36.6698 130.49,36.3198 130.15,36.4898 C129.23,36.9298 128.54,36.5198 127.76,35.6598 C127.96,36.5298 128.14,37.0998 128.22,37.6898 C128.35,38.5998 127.74,39.4098 126.93,39.3098 C125.47,39.1198 123.78,39.2598 123.25,37.2198 L123.3,37.2398 Z M75.26,19.5998 C79.17,18.2898 83.06,17.6698 86.97,17.2898 C91.29,16.8698 95.63,17.7398 99.99,17.1398 C103.28,16.6798 106.6,17.0798 109.89,17.5498 C110.28,17.6098 110.91,17.7198 110.76,17.1598 C110.47,16.0998 111.02,15.0798 110.76,13.7998 C110.42,14.5598 110.19,15.0998 109.95,15.6398 C109.68,16.2598 109.12,16.5298 108.6,16.1998 C107.89,15.7498 107.11,15.4598 106.43,15.0698 C105.58,14.5898 104.61,15.3898 103.96,14.5498 C103.87,14.6198 103.75,14.6798 103.71,14.7698 C103.24,15.7098 102.68,15.3598 101.94,15.0498 C101.25,14.7498 101.21,16.2498 100.31,15.9098 C100.27,15.8998 100.22,15.8998 100.2,15.8698 C99.34,14.6798 98.3,16.4398 97.42,15.6998 C96.31,16.9798 95.69,16.0698 95.08,15.0398 C94.92,15.2698 94.83,15.3898 94.76,15.5198 C94.43,16.1098 94.16,16.8698 93.32,16.7098 C92.55,16.5698 92.55,15.7898 92.4,15.1798 C92.13,14.0798 91.83,12.9798 91.53,11.8198 C91.17,11.9898 91.11,12.2698 90.98,12.4998 C90.22,13.8498 89.54,15.2698 88.53,16.4598 C87.77,17.3498 86.97,17.3698 86.4,16.3798 C85.93,15.5698 85.72,15.9798 85.3,16.3498 C84.42,17.1298 83.88,16.9798 83.42,15.8798 C83.35,15.7098 83.29,15.5298 83.21,15.3298 C82.38,15.6598 81.92,16.5698 81.01,16.5598 C79.67,16.5498 80.03,15.3998 79.85,14.5598 C78.67,15.1498 78.02,16.5098 76.57,16.4298 C76.51,16.4298 76.42,16.6098 76.38,16.7198 C76.03,17.6298 75.68,18.5498 75.29,19.5798 L75.26,19.5998 Z M72.04,37.8598 C71.83,36.1998 71.48,34.5998 71.43,32.9698 C71.41,32.2198 71.18,31.7398 70.38,31.5098 C69.62,31.2998 69.03,30.7998 68.84,29.7598 C68.21,30.9298 67.25,30.6298 66.41,30.7798 C65.09,30.9998 64.57,30.5898 64.58,29.2398 C64.58,28.9098 63.26,27.6898 63.11,27.8698 C62.47,28.6098 61.42,28.9398 60.97,29.8898 C61.38,29.8898 61.7,29.7398 62.03,29.6698 C62.93,29.4698 63.71,30.2798 63.45,31.1698 C63.37,31.4598 63.2,31.7898 62.97,31.9698 C62.22,32.5598 62.89,33.0398 63.17,33.3498 C63.6,33.8398 63.69,33.1298 63.89,32.9298 C64.59,32.2498 65.26,31.9598 66.02,32.8298 C66.14,32.9698 66.33,33.0998 66.51,33.1198 C67.71,33.2498 68.11,35.0798 69.64,34.5798 C69.84,34.5098 70.08,35.0198 70.06,35.3598 C69.94,36.8498 71.47,36.9398 72.05,37.8598 L72.04,37.8598 Z M107.16,7.5798 C106.98,9.3198 106.5,9.5198 104.97,8.8498 C103.84,8.3498 102.64,7.8498 101.44,8.8198 C101.19,9.0198 100.8,9.0298 100.52,8.8798 C99.14,8.1398 97.97,8.7598 96.81,9.4098 C96.51,9.5698 96.21,9.6798 95.9,9.5698 C94.79,9.1598 93.56,8.9298 93.08,7.5798 C92.95,7.2098 92.73,6.7698 92.29,6.6198 C91.32,7.7498 90.67,9.3698 88.69,8.6598 C88.28,8.5098 88.01,8.7398 87.77,9.0398 C87.48,9.4098 87.13,9.5798 86.62,9.4998 C85.56,9.3298 84.48,9.3898 83.49,8.7898 C82.93,8.4498 82.75,9.2098 82.38,9.4398 C82.22,9.5398 82.03,9.7598 82.19,9.9298 C82.5,10.2598 82.87,9.8798 83.18,9.9198 C84.26,10.0498 85.34,10.4798 86.39,9.7998 C86.45,9.7598 86.61,9.8698 86.72,9.9098 C87.13,10.0498 87.53,10.2798 87.95,10.2998 C88.97,10.3498 90.05,11.0498 90.92,9.7298 C91.57,8.7398 92.39,8.7798 92.86,10.0398 C93.02,10.4598 93.3,10.1698 93.55,10.1198 C94.78,9.8798 96.04,10.1198 97.26,10.1498 C98.11,10.1698 98.81,10.4198 99.47,9.7098 C99.61,9.5598 99.92,9.4998 100.14,9.5098 C101.71,9.6298 103.28,9.0898 104.86,9.7698 C106.01,10.2698 107.17,9.7998 108.31,9.2298 C108.13,8.6398 107.8,8.0798 107.15,7.5598 L107.16,7.5798 Z M59.58,24.3398 C59.58,25.0598 60.57,25.9398 61.21,25.7798 C61.85,25.6198 62.38,25.7398 62.86,26.1798 C63,26.3098 63.15,26.6598 63.36,26.2398 C63.49,25.9898 63.62,25.7698 63.18,25.6198 C62.16,25.2598 62.01,24.5298 62.48,23.6198 C62.59,23.4098 62.78,23.1698 62.44,23.0298 C61.6,22.6798 60.82,23.1298 60.02,23.2698 C59.39,23.3798 59.75,24.0098 59.56,24.3398 L59.58,24.3398 Z M95.77,25.2598 C96.21,25.6598 96.08,26.4298 96.68,26.6198 C98.05,27.0698 99.32,27.7698 100.89,27.5798 C101.82,27.4698 102.67,26.6498 103.67,27.2098 C103.75,26.3798 104.76,26.2998 104.99,25.5698 C105.09,25.2598 105.69,24.9998 105.36,24.6898 C104.97,24.3198 104.64,24.8398 104.43,25.1198 C103.47,26.3798 102.14,26.7698 100.66,26.8798 C98.82,27.0198 97.23,26.3998 95.76,25.2498 L95.77,25.2598 Z M86.47,25.0598 C83.49,26.9098 80.72,27.1098 78.25,24.1298 C78.91,25.8098 80.24,26.5398 81.78,26.9098 C83.31,27.2798 85.89,26.2598 86.47,25.0598 Z M49.32,27.2498 C48.44,27.5598 47.59,27.9498 47.04,28.7698 C47.87,28.3698 48.75,28.0698 49.32,27.2498 Z" id="Shape" fill="#000000"></path>
            <path
            d="M52.17,147.47 C52.72,147.57 53.26,147.71 53.8,147.86 C54.35,148.01 54.73,148.34 54.78,148.93 C54.82,149.48 54.5,149.8 54.03,150.04 C52.66,150.73 51.81,151.96 50.88,153.1 C50.36,153.73 50.56,154 51.26,154.27 C52.74,154.85 54.22,155.46 55.52,156.43 C56.05,156.83 56.38,157.3 56.29,157.94 C56.21,158.55 55.64,158.68 55.15,158.85 C53.01,159.57 51.06,160.83 48.77,161.14 C48.05,161.24 47.98,161.7 48.1,162.36 C48.63,165.15 49.36,167.88 50.17,170.6 C50.28,170.98 50.38,171.38 50.37,171.77 C50.35,172.3 50,172.64 49.49,172.77 C48.86,172.94 48.41,172.64 48.03,172.18 C45.62,169.3 43.19,166.45 40.82,163.53 C39.22,161.56 39.27,161.52 37.4,163.27 C36.61,164 35.82,164.74 35.02,165.45 C34.61,165.81 34.13,166.01 33.59,165.73 C33.06,165.45 32.97,164.94 32.95,164.4 C32.9,162.24 33.14,160.1 33.5,157.97 C33.62,157.24 33.59,156.96 32.7,157.11 C31.29,157.33 29.86,157.52 28.41,157.38 C26.97,157.24 26.56,156.64 27.16,155.32 C28.04,153.38 29.27,151.65 30.63,150.03 C31.37,149.16 31.31,148.75 30.27,148.22 C29.22,147.67 28.27,146.91 27.32,146.18 C26.36,145.44 26.48,144.56 27.65,144.29 C29.66,143.82 31.68,143.25 33.79,143.46 C34.23,143.5 34.52,143.59 34.56,142.95 C34.69,140.64 34.91,138.33 35.07,136.02 C35.11,135.42 35.04,134.73 35.78,134.53 C36.58,134.31 36.91,134.97 37.22,135.52 C38.11,137.12 39.04,138.71 39.82,140.37 C40.24,141.27 40.55,141.23 41.27,140.68 C42.38,139.84 43.6,139.15 44.78,138.39 C45.35,138.02 45.98,137.76 46.54,138.27 C47.17,138.85 46.78,139.52 46.5,140.14 C45.73,141.83 44.94,143.53 44.18,145.19 C46.84,146.15 49.46,146.98 52.17,147.47 Z" 
            id="yellow-star" 
            class="moving-star"
            data-id="yellow-star"
            fill="#FFB512">
             </path>

            <path d="M112.54,86.14 C112.97,86.06 113.31,85.98 113.66,85.95 C114.04,85.92 114.51,85.71 114.7,86.22 C114.88,86.68 114.66,87.12 114.28,87.37 C113.42,87.94 112.55,88.54 111.62,88.98 C108.54,90.44 105.29,91.1 101.88,91.06 C99.27,91.03 97.44,89.48 95.61,87.92 C93.61,86.21 92.24,83.98 90.78,81.84 C90.38,81.26 90.18,81.05 89.78,81.84 C87.43,86.56 84.09,90.4 79.64,93.27 C79.28,93.5 79,93.87 78.71,94.19 C77.89,95.12 77.3,95.12 76.66,94.08 C76.33,93.55 76.06,92.94 75.95,92.34 C75.83,91.68 76.02,91.01 76.87,90.95 C78.21,90.85 79.1,90.05 80,89.16 C80.99,88.18 82.12,87.34 83.21,86.47 C85.16,84.91 86.51,82.92 87.58,80.69 C87.94,79.94 87.79,79.76 86.99,79.67 C84.38,79.38 81.72,79.3 79.19,78.46 C76.13,77.43 73.06,76.42 70.11,75.09 C68.9,74.55 68.03,73.6 67.34,72.52 C66.68,71.49 67.01,70.32 68.02,69.62 C69.48,68.6 71.08,68.12 72.87,68.2 C73.83,68.24 74.79,68.23 75.75,68.2 C77.97,68.13 80,68.56 81.77,70.04 C83.3,71.32 85.33,71.83 86.87,73.15 C87.54,73.73 88.16,74.34 88.73,75.01 C89.08,75.42 89.38,75.54 89.88,75.04 C92.63,72.26 96.15,71.01 99.83,70.11 C100.91,69.84 101.98,69.56 103.05,69.25 C105.16,68.65 107.34,68.87 109.44,69.46 C110.45,69.74 110.89,70.97 110.52,72.16 C109.92,74.11 108.68,75.58 106.93,76.62 C103.19,78.84 99.25,80.36 94.79,79.93 C94.61,79.91 94.42,79.96 94.02,80 C95.38,81.9 96.6,83.65 98.82,84.33 C100.8,84.94 102.78,85.59 104.77,86.16 C106.99,86.79 109.12,86.67 111,85.13 C111.09,85.05 111.19,84.97 111.29,84.92 C111.88,84.65 112.5,83.85 113.07,84.35 C113.7,84.91 112.61,85.38 112.53,86.14 L112.54,86.14 Z M100.73,74.38 C98.2,74.98 95.85,75.96 93.61,77.22 C96.19,76.78 98.57,75.83 100.73,74.38 Z M81.16,74.51 C79.95,73.76 78.79,72.93 77.11,72.51 C78.14,74.23 79.6,74.47 81.16,74.51 Z" id="Shape" fill="#000000"></path>
            <path d="M79.3,194.17 C79.49,192.02 79.68,189.89 79.88,187.75 C79.93,187.18 80,186.6 80.71,186.47 C81.41,186.34 81.73,186.84 81.98,187.34 C82.74,188.88 83.48,190.42 84.19,191.98 C84.51,192.68 84.76,192.85 85.49,192.32 C86.74,191.4 88.08,190.6 89.42,189.81 C90.52,189.16 91.21,189.6 91.13,190.89 C91.08,191.8 90.91,192.71 90.74,193.61 C90.58,194.43 90.74,194.82 91.69,194.62 C93.03,194.34 94.39,194.34 95.74,194.46 C96.34,194.52 96.82,194.76 97.02,195.36 C97.22,195.93 96.81,196.26 96.46,196.58 C95.22,197.7 93.98,198.83 92.7,199.91 C92.2,200.34 92.27,200.62 92.68,201.06 C94.13,202.66 95.55,204.28 96.79,206.05 C97.25,206.7 97.8,207.39 97.29,208.23 C96.81,209.02 95.97,209.05 95.16,209.01 C93.44,208.92 91.75,208.6 90.11,208.1 C89.47,207.91 89.11,208.04 88.74,208.61 C87.81,210.07 87.11,211.63 86.48,213.23 C86.24,213.85 86.1,214.61 85.2,214.59 C84.35,214.57 84.13,213.85 83.87,213.23 C83.36,212.04 83.28,210.75 83.02,209.5 C82.87,208.73 82.59,208.6 81.9,209.07 C80.31,210.14 78.72,211.21 76.91,211.89 C76.22,212.15 75.49,212.39 74.88,211.81 C74.2,211.16 74.56,210.42 74.86,209.71 C75.58,207.98 76.28,206.24 76.88,204.46 C77.21,203.48 76.88,203.21 76,203.25 C74.55,203.32 73.15,202.99 71.73,202.8 C71.16,202.72 70.69,202.6 70.57,201.98 C70.45,201.39 70.8,200.98 71.26,200.69 C72.34,200.01 73.42,199.32 74.53,198.7 C75.12,198.37 75.21,198.09 74.86,197.49 C74.21,196.35 73.67,195.15 73.06,193.98 C72.83,193.54 72.57,193.12 72.88,192.64 C73.2,192.14 73.71,192.03 74.25,192.12 C75.69,192.35 76.98,192.98 78.24,193.68 C78.57,193.87 78.85,194.21 79.32,194.14 L79.3,194.17 Z"
             id="blue-star"
             class="moving-star"
             data-id="blue-star"
            fill="#5698DA"></path>
           
            <path d="M115.48,118.28 C113.61,117.84 111.85,117.47 110.11,117.01 C109.34,116.81 108.98,117.04 108.59,117.71 C107.22,120.12 106.31,122.72 105.29,125.27 C105.17,125.57 105.08,125.87 104.95,126.16 C104.76,126.59 104.43,126.89 103.94,126.88 C103.39,126.88 103.05,126.53 102.94,126.01 C102.61,124.49 102.3,122.97 101.99,121.44 C101.89,120.97 101.82,120.5 101.74,120.03 C101.33,117.71 101.73,118.06 99.37,118.35 C97.82,118.54 96.29,118.84 94.72,118.69 C93.21,118.55 92.82,117.92 93.47,116.53 C94.21,114.95 95.45,113.73 96.56,112.43 C97.08,111.83 97.2,111.57 96.38,111.16 C95.02,110.49 93.72,109.7 92.39,108.97 C91.92,108.71 91.46,108.47 91.47,107.83 C91.49,107.13 92.07,107.07 92.55,106.89 C93.64,106.48 94.74,106.14 95.89,106 C96.48,105.93 96.76,105.67 96.7,104.98 C96.55,103.23 96.5,101.47 96.41,99.72 C96.38,99.15 96.38,98.57 96.99,98.27 C97.56,97.98 97.98,98.35 98.4,98.65 C99.36,99.31 100.16,100.16 100.92,101.03 C101.44,101.63 101.71,101.64 102.28,101.01 C103.77,99.35 105.37,97.77 106.94,96.18 C107.36,95.75 107.82,95.3 108.5,95.52 C109.23,95.76 109.23,96.45 109.27,97.02 C109.38,98.49 109.44,99.97 109.46,101.45 C109.47,102.14 109.66,102.39 110.38,102.18 C111.82,101.76 113.31,101.95 114.78,101.89 C115.29,101.87 115.61,102.08 115.81,102.53 C116.03,103.02 115.86,103.38 115.46,103.67 C114.03,104.73 113.03,106.21 111.74,107.4 C111.24,107.87 111.21,108.22 111.61,108.81 C113.22,111.19 114.76,113.62 116.32,116.04 C116.63,116.53 116.88,117.04 116.52,117.6 C116.25,118.02 115.86,118.29 115.45,118.26 L115.48,118.28 Z" class="moving-star" id="orange-star" data-id="orange-star" fill="#FF6C2F"></path>


            <path d="M133.12,179.57 C131.56,179.38 130.13,179.2 128.71,179.04 C128.27,178.99 127.81,178.97 127.59,178.5 C127.34,177.98 127.78,177.71 128.04,177.38 C128.99,176.16 130.34,175.52 131.71,174.99 C132.83,174.55 132.85,174.06 132.25,173.2 C131.84,172.61 131.5,171.98 131.15,171.35 C130.94,170.98 130.86,170.58 131.17,170.23 C131.44,169.93 131.81,169.94 132.17,170.04 C132.9,170.24 133.65,170.39 134.36,170.65 C135.04,170.91 135.4,170.71 135.59,170.05 C135.88,169.1 136.17,168.15 136.47,167.19 C136.6,166.76 136.77,166.35 137.32,166.32 C137.83,166.3 137.99,166.69 138.16,167.05 C138.53,167.84 138.89,168.64 139.24,169.45 C139.44,169.91 139.7,170.04 140.17,169.8 C141.13,169.31 142.11,168.87 143.08,168.39 C143.53,168.17 144,168.01 144.41,168.42 C144.79,168.8 144.74,169.27 144.6,169.77 C144.27,170.93 143.74,172 143.16,173.05 C142.81,173.68 142.76,174.08 143.52,174.44 C144.92,175.11 146.27,175.89 147.65,176.61 C148.2,176.9 148.78,177.19 148.68,177.91 C148.57,178.67 147.92,178.88 147.27,179 C145.98,179.24 144.68,179.49 143.38,179.69 C142.66,179.8 142.64,180.1 142.98,180.65 C143.65,181.73 144.27,182.85 144.94,183.94 C145.22,184.39 145.36,184.83 144.99,185.25 C144.61,185.7 144.2,185.4 143.81,185.21 C142.483,184.563 141.817,184.987 141.81,186.48 C141.81,187.32 141.81,188.16 141.74,188.99 C141.68,189.65 141.66,190.46 140.79,190.6 C139.95,190.73 139.49,190.15 139.2,189.43 C138.48,187.66 137.7,185.9 137.08,184.1 C136.77,183.19 136.4,183.13 135.64,183.52 C134.64,184.02 133.61,184.46 132.58,184.89 C132.14,185.07 131.67,185.2 131.2,185.24 C130.7,185.29 130.12,185.4 129.79,184.86 C129.44,184.29 129.88,183.86 130.17,183.46 C131.1,182.18 132.08,180.93 133.12,179.56 L133.12,179.57 Z"
             id="lilac-star"
             class="moving-star"
             data-id="lilac-star"
            fill="#C386FA">
            </path>

            <path d="M70.06,179.35 C64.05,177.76 59.23,174.87 55.77,169.96 C55.42,169.46 55.03,168.78 55.63,168.22 C56.13,167.76 56.72,168.05 57.14,168.45 C61,172.17 65.47,175.15 69.5,178.66 C69.65,178.79 69.75,178.96 70.06,179.35 Z" id="Shape" fill="#000000"></path>
            <path d="M70.21,183.99 C67.15,183.29 63.99,182.25 61.21,180.29 C60.2,179.58 59.14,178.92 58.31,177.99 C57.99,177.63 57.64,177.25 58.02,176.73 C58.43,176.17 58.94,176.33 59.4,176.62 C63.01,178.89 66.89,180.67 70.61,182.75 C70.99,182.96 71.48,183.24 71.4,183.7 C71.33,184.09 70.8,183.97 70.22,184 L70.21,183.99 Z" id="Shape" fill="#000000"></path>
            <path d="M110.24,127.63 C109.85,130.59 109.74,133.95 109.06,137.23 C108.86,138.2 108.45,139.12 108.12,140.07 C108.03,140.34 107.91,140.64 107.56,140.59 C107.19,140.54 107.23,140.18 107.21,139.92 C107.07,137.72 107.49,135.55 107.57,133.36 C107.68,130.47 108.5,127.7 109.06,124.88 C109.14,124.47 109.23,123.85 109.74,123.9 C110.26,123.95 110.19,124.59 110.22,124.99 C110.28,125.74 110.24,126.5 110.24,127.63 Z" id="Shape" fill="#000000"></path>
            <path d="M79.64,183.32 C78.32,182.91 77.83,181.7 76.79,181.13 C76.32,182.15 76.78,183.42 75.73,184.35 C75.41,183.28 75.7,182.28 75.51,181.23 C74.71,181.56 74.32,182.37 73.47,182.58 C73.37,181.7 73.94,181.2 74.43,180.74 C75.18,180.04 74.76,179.78 74.11,179.52 C73.81,179.41 73.48,179.36 73.22,179.19 C72.92,178.99 72.94,178.59 73.32,178.61 C74.63,178.67 73.98,178.12 73.69,177.62 C73.56,177.39 73.32,177.17 73.66,176.57 C74.11,177.13 74.48,177.64 74.9,178.11 C75.42,178.7 75.86,178.82 76.06,177.84 C76.13,177.5 76.32,177.18 76.5,176.76 C77.13,177.98 77.54,176.78 78.13,176.66 C78.36,177.38 77.89,177.82 77.58,178.26 C77.15,178.87 77.18,179.23 77.95,179.45 C78.41,179.58 78.84,179.8 79.27,180 C79.56,180.14 79.87,180.38 79.8,180.72 C79.71,181.13 79.29,180.99 78.99,181.01 C78.76,181.03 78.53,181.01 78.22,181.01 C78.56,181.83 79.41,182.26 79.64,183.32 Z" id="Shape" fill="#000000"></path>
            <path d="M56.02,178.16 C55.69,178.68 55.23,178.43 54.93,178.7 C55.18,179.18 55.44,179.67 55.68,180.17 C55.82,180.48 56.13,180.87 55.68,181.11 C55.31,181.31 55.01,180.98 54.78,180.7 C54.38,180.21 53.98,179.71 53.54,179.16 C53.06,179.56 53.11,180.14 52.94,180.63 C52.83,180.94 52.87,181.46 52.38,181.42 C51.87,181.38 52.02,180.89 51.99,180.56 C51.96,180.26 51.99,179.95 51.99,179.64 C51.5,179.59 51.22,179.95 50.85,180.07 C50.56,180.17 50.3,180.21 50.09,179.95 C49.86,179.66 50.1,179.45 50.22,179.2 C50.47,178.66 51.56,178.65 51.27,177.98 C51.11,177.6 50.23,177.53 49.68,177.3 C49.58,177.26 49.51,177.15 49.33,177 C50.27,176.61 51.08,177.07 52,177.15 C52.19,176.55 51.64,176.27 51.47,175.85 C51.33,175.51 50.86,175.13 51.3,174.8 C51.71,174.49 52,175 52.3,175.23 C52.49,175.37 52.63,175.58 52.8,175.75 C52.91,175.87 53.02,175.98 53.13,176.09 C53.79,175.32 54.5,176.38 55.18,176.04 C55.39,175.93 55.67,175.96 55.8,176.22 C55.91,176.43 55.8,176.67 55.65,176.75 C54.4,177.5 54.92,177.89 56.03,178.17 L56.02,178.16 Z" id="Shape" fill="#000000"></path>
            <path d="M112.69,130.25 C112.49,132 112.6,133.75 112.31,135.5 C112.22,136.02 112.02,136.48 111.84,136.96 C111.68,137.36 111.5,137.72 111,137.59 C110.53,137.47 110.41,137.05 110.43,136.65 C110.63,133.04 110.75,129.42 111.67,125.89 C111.75,125.57 111.81,125.05 112.25,125.11 C112.75,125.17 112.7,125.68 112.7,126.07 C112.7,127.46 112.7,128.86 112.7,130.25 L112.69,130.25 Z" id="Shape" fill="#000000"></path>
            <path d="M86.88,186.54 C86.64,186.49 86.28,186.63 86.19,186.27 C86.08,185.83 86.48,185.63 86.76,185.45 C89.1,183.93 91.46,182.45 93.91,181.13 C94.89,180.6 95.86,180.05 96.85,179.53 C97.28,179.3 97.84,178.75 98.22,179.27 C98.61,179.81 97.9,180.15 97.52,180.46 C95.68,181.94 93.58,183.01 91.57,184.23 C90.55,184.85 89.51,185.44 88.48,186.05 C87.99,186.34 87.47,186.53 86.88,186.54 Z" id="Shape" fill="#000000"></path>
            <path d="M53.41,121.72 C53.63,122.52 53.18,123.02 53.03,123.58 C51.79,128.06 50.22,132.46 49.6,137.1 C49.54,137.58 49.42,138.13 48.74,137.98 C48.07,137.84 48.23,137.3 48.3,136.82 C48.88,132.49 50.37,128.41 51.81,124.32 C52.14,123.39 52.53,122.48 53.41,121.73 L53.41,121.72 Z" id="Shape" fill="#000000"></path>
            <path d="M53.31,114.25 C52.53,116.78 51.74,119.32 50.96,121.85 C50.6,123.03 50.28,124.22 49.91,125.39 C49.74,125.9 49.56,126.63 48.84,126.39 C48.21,126.18 48.48,125.52 48.6,125.03 C49.48,121.54 50.93,118.27 52.46,115.03 C52.61,114.72 52.84,114.44 53.03,114.15 C53.12,114.18 53.21,114.21 53.31,114.25 Z" id="Shape" fill="#000000"></path>
            <path d="M54.52,164.09 C55.04,163.99 55.4,163.48 55.98,163.63 C55.92,164.2 55.26,164.34 55.08,164.9 C55.52,165.08 55.95,165.25 56.52,165.48 C54.98,165.85 56.16,166.74 56.1,167.41 C55.32,167.53 55.3,166.68 54.76,166.53 C54.68,167.18 54.94,167.88 54.47,168.58 C53.67,167.88 54.11,166.82 53.63,166.04 C52.92,166.25 52.44,167.07 51.55,166.97 C51.59,166.1 52.59,165.98 52.79,165.29 C52.71,165.23 52.66,165.17 52.59,165.14 C52.14,164.96 51.23,165.29 51.26,164.72 C51.3,163.97 52.18,164.23 52.74,164.2 C52.89,164.2 53.03,164.17 53.17,164.16 C53.17,164.03 53.18,163.95 53.17,163.88 C53.08,163.42 52.37,163.1 52.65,162.64 C53.01,162.06 53.45,163.56 53.96,162.72 C54.14,163.18 54.32,163.64 54.51,164.11 L54.52,164.09 Z" id="Shape" fill="#000000"></path>
            <path d="M115.24,120.95 C116.08,121.02 115.97,122.41 116.97,121.56 C117.22,121.35 117.19,121.92 117.25,122.16 C117.43,122.85 116.63,124.08 118.24,123.98 C118.2,124.58 118.74,124.8 119.02,125.19 C119.17,125.41 118.99,125.59 118.77,125.6 C118.46,125.61 118.15,125.56 117.84,125.53 C117.59,126.14 118.26,126.69 117.84,127.36 C117.42,126.83 116.96,126.44 116.54,127.33 C115.98,126.82 116.29,126.21 116.14,125.7 C115.87,124.78 115.17,125.75 114.74,125.37 C114.75,125.07 114.96,124.85 115.26,124.69 C115.4,124.62 115.52,124.52 115.64,124.43 C114.35,123.3 117.02,122.09 115.23,120.97 L115.24,120.95 Z" id="Shape" fill="#000000"></path>
            <path d="M93.49,91.91 C93.7,91.99 94.06,92.08 94.36,92.26 C96.42,93.47 98.46,94.69 100.51,95.91 C100.78,96.07 101.01,96.3 101.26,96.5 C101.52,96.71 101.57,96.97 101.38,97.23 C101.21,97.46 100.94,97.41 100.73,97.29 C98.2,95.87 95.67,94.45 93.16,93.01 C92.9,92.86 92.65,92.58 92.78,92.21 C92.87,91.94 93.11,91.89 93.5,91.9 L93.49,91.91 Z" id="Shape" fill="#000000"></path>
            <path d="M84.17,97.85 C86.73,98.64 89.27,99.47 91.4,101.18 C91.68,101.41 92.18,101.72 91.9,102.14 C91.67,102.49 91.23,102.14 90.94,102 C88.95,100.95 86.87,100.18 84.71,99.59 C84.33,99.49 83.97,99.29 83.63,99.09 C83.34,98.92 83.15,98.63 83.28,98.28 C83.43,97.88 83.76,97.78 84.16,97.86 L84.17,97.85 Z" id="Shape" fill="#000000"></path>
            <path d="M97.1,177.24 C96.95,177.47 96.88,177.67 96.74,177.8 C95,179.4 93.16,180.84 90.92,181.69 C90.63,181.8 90.25,182.19 89.99,181.7 C89.78,181.31 90.17,181.03 90.38,180.78 C91.13,179.88 92.13,179.28 93.13,178.7 C94.13,178.12 95.13,177.54 96.14,176.98 C96.5,176.78 96.88,176.74 97.09,177.23 L97.1,177.24 Z" id="Shape" fill="#000000"></path>
            <path d="M45.81,129.35 C46.2434,129.703 46.68,129.677 47.12,129.27 C47.48,129.6 47.16,130.03 47.31,130.45 C47.94,130.48 48.3,129.71 48.96,129.79 C49.16,130.2 48.78,130.33 48.61,130.44 C47.82,130.95 47.3,131.42 48.77,131.98 C48.15,132.3 47.37,132.46 47.96,133.28 C48.09,133.46 48.21,133.76 47.94,133.92 C47.6,134.11 47.45,133.81 47.31,133.57 C47.19,133.37 47.19,133.1 46.88,132.98 C46.64,133.4 46.77,133.99 46.26,134.37 C45.66,133.69 46.33,132.95 46.15,132.25 C45.54,132.15 45.23,132.84 44.52,132.83 C45.19,131.74 45.54,130.58 45.81,129.35 Z" id="Shape" fill="#000000"></path>
            <path d="M101.47,136.99 C102.61,136.81 103.07,137.42 103.21,138.43 C103.22,138.54 103.32,138.72 103.39,138.72 C105.35,138.8 104.07,140.98 105.31,141.54 C104.53,141.61 104.36,140.77 103.72,140.65 C103.75,141.11 103.78,141.57 103.82,142.11 C103.12,141.72 103.23,140.95 102.8,140.46 C102.57,140.58 102.35,140.73 102.1,140.82 C101.97,140.87 101.76,140.85 101.66,140.77 C101.17,140.35 102.52,140.05 101.73,139.54 C100.98,139.06 101.27,138.84 101.99,138.76 C102.4,138.71 102.18,138.43 102.09,138.24 C101.89,137.82 101.5,137.49 101.48,137 L101.47,136.99 Z" id="Shape" fill="#000000"></path>
            <path d="M87.58,92.35 C87.5,91.98 88.07,92 88.03,91.61 C87.79,91.37 87.46,91.5 87.16,91.44 C86.93,91.4 86.63,91.42 86.63,91.1 C86.63,90.79 86.93,90.77 87.16,90.76 C87.48,90.74 87.8,90.79 88.11,90.76 C88.49,90.72 89.07,90.94 89,90.17 C89,90.09 89.1,89.99 89.16,89.9 C90.09,90.94 90.19,89.35 90.77,89.36 C91.05,89.73 90.56,90.05 90.77,90.43 C91.39,90.54 91.91,89.94 92.6,90.08 C92.23,90.59 91.23,90.55 91.48,91.47 C91.25,91.52 91.03,91.63 90.8,91.62 C90.21,91.59 90.02,91.8 90.1,92.4 C90.14,92.68 90.45,93.74 89.51,92.78 C89.29,92.55 89.08,93.34 88.63,93.16 C88.37,92.84 88.79,92.58 88.72,92.27 C88.33,92.08 88,92.65 87.58,92.35 Z" id="Shape" fill="#000000"></path>
            <path d="M55.33,108.44 C54.44,108.51 55.63,110.64 53.97,109.65 C53.56,110.12 54.5,110.93 53.36,111.21 C52.65,111.38 52.56,111.18 52.58,110.7 C52.61,110.1 52.64,109.64 51.82,109.92 C51.63,109.99 51.4,110 51.3,109.78 C51.2,109.56 51.39,109.41 51.55,109.3 C51.93,109.04 52.35,108.87 51.94,108.23 C51.73,107.9 52.25,107.68 52.52,107.65 C53.06,107.59 53.45,107.38 53.76,106.82 C53.82,107.8 53.98,108.62 55.33,108.44 Z" id="Shape" fill="#000000"></path>
            <path d="M80.09,94.54 C80.75,94.96 81.25,95.88 81.73,94.68 C82.24,95.16 81.63,95.58 81.9,96.06 C82.33,96.11 82.68,95.68 83.12,95.62 C82.8934,96.286 82.51,96.736 81.97,96.97 C81.87,97.01 81.75,97.07 81.69,97.15 C80.96,98.27 80.57,98.38 79.33,97.78 C79.37,97.5 79.61,97.42 79.8,97.28 C79.95,97.17 80.11,97.06 80.29,96.94 C80.04,96.53 79.48,96.72 79.28,96.21 C80.45,96.26 80.31,95.47 80.08,94.53 L80.09,94.54 Z" id="Shape" fill="#000000"></path>
            <path d="M95.67,104.49 C94.25,103.66 93.45,105.07 92.36,105.3 C92.07,104.64 92.79,104.44 92.8,103.96 C92.39,103.63 91.84,104.03 91.45,103.67 C91.82,102.78 92.96,102.89 93.46,102.14 C93.56,101.98 95.05,102.67 94.97,102.82 C94.57,103.62 95.31,103.85 95.68,104.48 L95.67,104.49 Z" id="Shape" fill="#000000"></path>
            <path d="M75.15,121.17 C74.68,121.39 74.17,121.61 73.67,121.85 C72.4,122.44 71.1,122.92 69.74,123.25 C69.16,123.39 68.44,123.51 68.19,122.79 C67.93,122.03 68.61,121.82 69.17,121.58 C71.03,120.78 72.97,120.15 74.72,119.09 C75.45,118.65 76.01,118.73 76.69,119.43 C77.67,120.45 78.88,121.25 79.99,122.15 C80.24,122.35 80.51,122.53 80.71,122.76 C81.07,123.19 81.21,123.69 80.8,124.17 C80.38,124.66 79.88,124.58 79.41,124.24 C78.22,123.37 77.04,122.49 75.86,121.6 C75.64,121.44 75.49,121.17 75.13,121.17 L75.15,121.17 Z" id="Shape" fill="#000000"></path>
            <path d="M76.4,111.81 C76.38,112.11 76.22,112.37 75.92,112.55 C75.46,112.83 75.02,112.66 74.69,112.39 C73.82,111.66 72.78,111.23 71.84,110.63 C71.18,110.2 70.72,110.33 70.18,110.88 C69.29,111.79 68.46,112.78 67.38,113.5 C67.03,113.73 66.64,113.97 66.32,113.57 C66.02,113.2 66.25,112.82 66.54,112.51 C67.67,111.33 68.81,110.15 69.92,108.95 C70.48,108.34 71.09,108.2 71.85,108.54 C73.2,109.15 74.54,109.77 75.7,110.71 C76.05,110.99 76.37,111.29 76.39,111.82 L76.4,111.81 Z" id="Shape" fill="#000000"></path>
            <path d="M73.63,113.97 C73.64,115.53 72.8,116.58 71.49,116.6 C70.29,116.63 69.37,115.53 69.34,114.06 C69.32,112.54 70.25,111.31 71.42,111.33 C72.69,111.35 73.61,112.45 73.63,113.96 L73.63,113.97 Z" id="Shape" fill="#000000"></path>
            <path d="M88.72,48.83 C87.28,49.2 85.6,48.58 83.99,47.59 C83.58,47.33 83.18,47.06 82.93,46.65 C82.78,46.39 82.61,46.05 83.05,45.84 C84.28,45.26 85.16,44.14 86.44,43.63 C87.1,43.37 87.77,42.98 88.41,43.68 C88.68,43.97 88.95,43.95 89.26,43.76 C90.48,43.02 91.66,43.2 92.87,43.86 C93.6,44.26 94.41,44.49 95.19,44.8 C95.7,45 95.97,45.38 95.5,45.78 C93.68,47.35 91.78,48.79 88.72,48.83 Z M84.04,46.65 C87.16,49.27 92.33,48.41 94.21,45.84 C90.95,47.03 87.58,46.66 84.04,46.65 Z" id="Shape" fill="#000000"></path>
        </g>
    </g>
</svg>