<?xml version="1.0" encoding="UTF-8"?>
<svg width="739px" height="99px" viewBox="0 0 739 99" version="1.1"
    xmlns="http://www.w3.org/2000/svg" xmlns:xlink="http://www.w3.org/1999/xlink">
    <title>MonadicDNA-logo-dark</title>
    <defs></defs>
    <g id="Page-1" stroke="none" stroke-width="1" fill="none" fill-rule="evenodd">
        <g id="MonadicDNA-logo-dark" fill="#FFFFFF" fill-rule="nonzero">
            <path
                d="M511.39,97.297 L511.39,3.326 L537.701,3.326 C550.32,3.326 559.896,6.548 566.43,12.992 C573.052,19.346 576.364,28.832 576.364,41.451 L576.364,59.172 C576.364,71.791 573.052,81.322 566.43,87.766 C559.896,94.12 550.32,97.297 537.701,97.297 L511.39,97.297 Z M529.11,81.188 L537.97,81.188 C545.13,81.188 550.365,79.308 553.676,75.549 C556.988,71.791 558.644,66.51 558.644,59.709 L558.644,40.914 C558.644,34.023 556.988,28.743 553.676,25.074 C550.365,21.315 545.13,19.435 537.97,19.435 L529.11,19.435 L529.11,81.188 Z"
                id="Shape"></path>
            <polygon id="Shape"
                points="0.435 96.627 0.435 2.656 33.325 2.656 49.568 84.545 51.985 84.545 68.228 2.656 101.118 2.656 101.118 96.627 83.935 96.627 83.935 15.678 81.518 15.678 65.409 96.627 36.144 96.627 20.035 15.678 17.618 15.678 17.618 96.627"></polygon>
            <path
                d="M141.548,98.507 C134.925,98.507 128.974,97.164 123.693,94.48 C118.413,91.795 114.252,87.902 111.209,82.8 C108.166,77.699 106.645,71.569 106.645,64.409 L106.645,62.261 C106.645,55.101 108.166,48.971 111.209,43.87 C114.252,38.768 118.413,34.875 123.693,32.19 C128.974,29.506 134.925,28.163 141.548,28.163 C148.171,28.163 154.122,29.506 159.402,32.19 C164.683,34.875 168.844,38.768 171.887,43.87 C174.93,48.971 176.451,55.101 176.451,62.261 L176.451,64.409 C176.451,71.569 174.93,77.699 171.887,82.8 C168.844,87.902 164.683,91.795 159.402,94.48 C154.122,97.164 148.171,98.507 141.548,98.507 Z M141.548,83.472 C146.739,83.472 151.034,81.816 154.435,78.505 C157.836,75.104 159.537,70.271 159.537,64.006 L159.537,62.664 C159.537,56.399 157.836,51.611 154.435,48.3 C151.124,44.899 146.828,43.198 141.548,43.198 C136.357,43.198 132.061,44.899 128.661,48.3 C125.26,51.611 123.559,56.399 123.559,62.664 L123.559,64.006 C123.559,70.271 125.26,75.104 128.661,78.505 C132.061,81.816 136.357,83.472 141.548,83.472 Z"
                id="Shape"></path>
            <path
                d="M182.157,96.627 L182.157,30.042 L198.803,30.042 L198.803,38.768 L201.219,38.768 C202.293,36.441 204.307,34.248 207.26,32.19 C210.214,30.042 214.688,28.968 220.685,28.968 C225.875,28.968 230.395,30.176 234.243,32.592 C238.181,34.919 241.224,38.186 243.372,42.392 C245.52,46.509 246.594,51.342 246.594,56.89 L246.594,96.627 L229.679,96.627 L229.679,58.233 C229.679,53.221 228.426,49.462 225.92,46.956 C223.504,44.451 220.013,43.198 215.449,43.198 C210.258,43.198 206.231,44.943 203.367,48.433 C200.503,51.834 199.071,56.622 199.071,62.797 L199.071,96.627 L182.157,96.627 Z"
                id="Shape"></path>
            <path
                d="M277.268,98.507 C272.525,98.507 268.274,97.701 264.515,96.09 C260.756,94.39 257.758,91.974 255.521,88.841 C253.373,85.619 252.299,81.726 252.299,77.162 C252.299,72.598 253.373,68.794 255.521,65.751 C257.758,62.619 260.801,60.292 264.65,58.771 C268.587,57.16 273.062,56.354 278.074,56.354 L296.331,56.354 L296.331,52.595 C296.331,49.463 295.347,46.912 293.378,44.944 C291.409,42.885 288.276,41.856 283.981,41.856 C279.774,41.856 276.642,42.84 274.584,44.809 C272.525,46.689 271.183,49.15 270.556,52.193 L254.984,46.957 C256.058,43.556 257.758,40.469 260.085,37.694 C262.502,34.831 265.679,32.548 269.617,30.848 C273.644,29.058 278.521,28.163 284.249,28.163 C293.02,28.163 299.956,30.356 305.057,34.741 C310.158,39.126 312.709,45.481 312.709,53.804 L312.709,78.639 C312.709,81.324 313.962,82.666 316.468,82.666 L321.837,82.666 L321.837,96.627 L310.561,96.627 C307.25,96.627 304.52,95.822 302.372,94.211 C300.224,92.6 299.15,90.452 299.15,87.767 L299.15,87.633 L296.6,87.633 C296.242,88.707 295.436,90.139 294.183,91.929 C292.93,93.629 290.961,95.151 288.276,96.493 C285.592,97.836 281.922,98.507 277.268,98.507 Z M280.222,84.814 C284.965,84.814 288.813,83.516 291.767,80.921 C294.81,78.236 296.331,74.701 296.331,70.316 L296.331,68.973 L279.282,68.973 C276.15,68.973 273.689,69.644 271.899,70.987 C270.109,72.329 269.214,74.209 269.214,76.625 C269.214,79.041 270.153,81.01 272.033,82.532 C273.912,84.053 276.642,84.814 280.222,84.814 Z"
                id="Shape"></path>
            <path
                d="M352.512,98.64 C347.232,98.64 342.265,97.342 337.611,94.747 C333.047,92.062 329.377,88.169 326.603,83.068 C323.829,77.967 322.441,71.791 322.441,64.542 L322.441,62.394 C322.441,55.145 323.829,48.97 326.603,43.869 C329.377,38.767 333.047,34.919 337.611,32.324 C342.175,29.639 347.142,28.296 352.512,28.296 C356.539,28.296 359.895,28.789 362.58,29.773 C365.355,30.668 367.592,31.831 369.292,33.263 C370.993,34.695 372.291,36.217 373.186,37.828 L375.602,37.828 L375.602,2.79 L392.517,2.79 L392.517,96.761 L375.87,96.761 L375.87,88.706 L373.454,88.706 C371.933,91.212 369.561,93.494 366.339,95.553 C363.207,97.611 358.598,98.64 352.512,98.64 Z M357.613,83.873 C362.804,83.873 367.145,82.218 370.635,78.906 C374.125,75.505 375.87,70.583 375.87,64.139 L375.87,62.797 C375.87,56.353 374.125,51.476 370.635,48.164 C367.234,44.764 362.894,43.063 357.613,43.063 C352.423,43.063 348.082,44.764 344.592,48.164 C341.101,51.476 339.356,56.353 339.356,62.797 L339.356,64.139 C339.356,70.583 341.101,75.505 344.592,78.906 C348.082,82.218 352.423,83.873 357.613,83.873 Z"
                id="Shape"></path>
            <path
                d="M411.714,22.293 C417.089,22.293 421.446,17.477 421.446,11.535 C421.446,5.594 417.089,0.7783 411.714,0.7783 C406.338,0.7783 401.981,5.594 401.981,11.535 C401.981,17.477 406.338,22.293 411.714,22.293 Z"
                id="Shape"></path>
            <polygon id="Shape" points="403.391 96.628 403.391 30.044 420.305 30.044 420.305 96.628"></polygon>
            <path
                d="M458.967,98.507 C452.524,98.507 446.662,97.164 441.382,94.48 C436.191,91.795 432.074,87.902 429.031,82.8 C425.988,77.699 424.467,71.524 424.467,64.275 L424.467,62.395 C424.467,55.146 425.988,48.971 429.031,43.87 C432.074,38.768 436.191,34.875 441.382,32.19 C446.662,29.506 452.524,28.163 458.967,28.163 C465.322,28.163 470.781,29.282 475.345,31.519 C479.909,33.757 483.579,36.844 486.353,40.782 C489.217,44.63 491.096,49.016 491.991,53.938 L475.614,57.428 C475.256,54.743 474.45,52.327 473.197,50.179 C471.944,48.031 470.154,46.331 467.828,45.078 C465.59,43.825 462.771,43.198 459.37,43.198 C455.969,43.198 452.882,43.959 450.107,45.481 C447.422,46.912 445.275,49.105 443.664,52.058 C442.142,54.922 441.382,58.457 441.382,62.664 L441.382,64.006 C441.382,68.212 442.142,71.792 443.664,74.746 C445.275,77.61 447.422,79.802 450.107,81.324 C452.882,82.756 455.969,83.472 459.37,83.472 C464.471,83.472 468.32,82.174 470.915,79.578 C473.6,76.894 475.3,73.403 476.016,69.107 L492.394,73.001 C491.231,77.744 489.217,82.084 486.353,86.022 C483.579,89.87 479.909,92.913 475.345,95.151 C470.781,97.388 465.322,98.507 458.967,98.507 Z"
                id="Shape"></path>
            <polygon id="Shape"
                points="583.881 96.627 583.881 2.656 617.576 2.656 636.236 84.545 638.653 84.545 638.653 2.656 656.104 2.656 656.104 96.627 622.409 96.627 603.749 14.738 601.333 14.738 601.333 96.627"></polygon>
            <path
                d="M658.722,96.627 L683.423,2.656 L714.299,2.656 L739,96.627 L720.743,96.627 L715.642,75.953 L682.081,75.953 L676.979,96.627 L658.722,96.627 Z M686.242,59.576 L711.48,59.576 L700.069,13.798 L697.653,13.798 L686.242,59.576 Z"
                id="Shape"></path>
        </g>
    </g>
</svg>