<svg width="1000" height="300" viewBox="0 0 1000 300" fill="none" xmlns="http://www.w3.org/2000/svg">
<path d="M31.6927 152.994C55.7791 144.031 72.1904 132.674 85.171 118.387C98.4263 103.796 107.923 86.2786 118.49 66.2158C132.538 91.9446 144.871 111.251 159.419 125.699C171.644 137.839 185.267 146.401 202.362 152.678C188.101 157.877 172.113 165.911 157.564 176.997C140.141 190.274 124.518 208.15 116.634 231C108.127 212.113 98.0334 196.979 84.8233 184.516C70.7746 171.262 53.5252 161.332 31.6927 152.994Z" stroke="white" stroke-width="17.6555"/>
<path d="M116.938 169.92C127.503 169.92 136.067 160.453 136.067 148.776C136.067 137.099 127.503 127.633 116.938 127.633C106.373 127.633 97.8079 137.099 97.8079 148.776C97.8079 160.453 106.373 169.92 116.938 169.92Z" fill="white"/>
<path d="M750.39 196.297L750.39 102.326H776.701C789.32 102.326 798.896 105.548 805.43 111.992C812.052 118.346 815.364 127.832 815.364 140.451V158.172C815.364 170.791 812.052 180.322 805.43 186.766C798.896 193.12 789.32 196.297 776.701 196.297H750.39ZM768.11 180.188H776.97C784.13 180.188 789.365 178.308 792.676 174.549C795.988 170.791 797.644 165.51 797.644 158.709V139.914C797.644 133.023 795.988 127.743 792.676 124.074C789.365 120.315 784.13 118.435 776.97 118.435H768.11V180.188Z" fill="white"/>
<path d="M239.435 195.627V101.656H272.325L288.568 183.545H290.985L307.228 101.656H340.118V195.627H322.935V114.678H320.518L304.409 195.627H275.144L259.035 114.678H256.618V195.627H239.435Z" fill="white"/>
<path d="M380.548 197.507C373.925 197.507 367.974 196.164 362.693 193.48C357.413 190.795 353.252 186.902 350.209 181.8C347.166 176.699 345.645 170.569 345.645 163.409V161.261C345.645 154.101 347.166 147.971 350.209 142.87C353.252 137.768 357.413 133.875 362.693 131.19C367.974 128.506 373.925 127.163 380.548 127.163C387.171 127.163 393.122 128.506 398.402 131.19C403.683 133.875 407.844 137.768 410.887 142.87C413.93 147.971 415.451 154.101 415.451 161.261V163.409C415.451 170.569 413.93 176.699 410.887 181.8C407.844 186.902 403.683 190.795 398.402 193.48C393.122 196.164 387.171 197.507 380.548 197.507ZM380.548 182.472C385.739 182.472 390.034 180.816 393.435 177.505C396.836 174.104 398.537 169.271 398.537 163.006V161.664C398.537 155.399 396.836 150.611 393.435 147.3C390.124 143.899 385.828 142.198 380.548 142.198C375.357 142.198 371.061 143.899 367.661 147.3C364.26 150.611 362.559 155.399 362.559 161.664V163.006C362.559 169.271 364.26 174.104 367.661 177.505C371.061 180.816 375.357 182.472 380.548 182.472Z" fill="white"/>
<path d="M421.157 195.627V129.042H437.803V137.768H440.219C441.293 135.441 443.307 133.248 446.26 131.19C449.214 129.042 453.688 127.968 459.685 127.968C464.875 127.968 469.395 129.176 473.243 131.592C477.181 133.919 480.224 137.186 482.372 141.392C484.52 145.509 485.594 150.342 485.594 155.89V195.627H468.679V157.233C468.679 152.221 467.426 148.462 464.92 145.956C462.504 143.451 459.013 142.198 454.449 142.198C449.258 142.198 445.231 143.943 442.367 147.433C439.503 150.834 438.071 155.622 438.071 161.797V195.627H421.157Z" fill="white"/>
<path d="M516.268 197.507C511.525 197.507 507.274 196.701 503.515 195.09C499.756 193.39 496.758 190.974 494.521 187.841C492.373 184.619 491.299 180.726 491.299 176.162C491.299 171.598 492.373 167.794 494.521 164.751C496.758 161.619 499.801 159.292 503.65 157.771C507.587 156.16 512.062 155.354 517.074 155.354H535.331V151.595C535.331 148.463 534.347 145.912 532.378 143.944C530.409 141.885 527.276 140.856 522.981 140.856C518.774 140.856 515.642 141.84 513.584 143.809C511.525 145.689 510.183 148.15 509.556 151.193L493.984 145.957C495.058 142.556 496.758 139.469 499.085 136.694C501.502 133.831 504.679 131.548 508.617 129.848C512.644 128.058 517.521 127.163 523.249 127.163C532.02 127.163 538.956 129.356 544.057 133.741C549.158 138.126 551.709 144.481 551.709 152.804V177.639C551.709 180.324 552.962 181.666 555.468 181.666H560.837V195.627H549.561C546.25 195.627 543.52 194.822 541.372 193.211C539.224 191.6 538.15 189.452 538.15 186.767V186.633H535.6C535.242 187.707 534.436 189.139 533.183 190.929C531.93 192.629 529.961 194.151 527.276 195.493C524.592 196.836 520.922 197.507 516.268 197.507ZM519.222 183.814C523.965 183.814 527.813 182.516 530.767 179.921C533.81 177.236 535.331 173.701 535.331 169.316V167.973H518.282C515.15 167.973 512.689 168.644 510.899 169.987C509.109 171.329 508.214 173.209 508.214 175.625C508.214 178.041 509.153 180.01 511.033 181.532C512.912 183.053 515.642 183.814 519.222 183.814Z" fill="white"/>
<path d="M591.512 197.64C586.232 197.64 581.265 196.342 576.611 193.747C572.047 191.062 568.377 187.169 565.603 182.068C562.829 176.967 561.441 170.791 561.441 163.542V161.394C561.441 154.145 562.829 147.97 565.603 142.869C568.377 137.767 572.047 133.919 576.611 131.324C581.175 128.639 586.142 127.296 591.512 127.296C595.539 127.296 598.895 127.789 601.58 128.773C604.355 129.668 606.592 130.831 608.292 132.263C609.993 133.695 611.291 135.217 612.186 136.828H614.602V101.79H631.517V195.761H614.87V187.706H612.454C610.933 190.212 608.561 192.494 605.339 194.553C602.207 196.611 597.598 197.64 591.512 197.64ZM596.613 182.873C601.804 182.873 606.145 181.218 609.635 177.906C613.125 174.505 614.87 169.583 614.87 163.139V161.797C614.87 155.353 613.125 150.476 609.635 147.164C606.234 143.764 601.894 142.063 596.613 142.063C591.423 142.063 587.082 143.764 583.592 147.164C580.101 150.476 578.356 155.353 578.356 161.797V163.139C578.356 169.583 580.101 174.505 583.592 177.906C587.082 181.218 591.423 182.873 596.613 182.873Z" fill="white"/>
<path d="M650.714 121.293C656.089 121.293 660.446 116.477 660.446 110.535C660.446 104.594 656.089 99.7783 650.714 99.7783C645.338 99.7783 640.981 104.594 640.981 110.535C640.981 116.477 645.338 121.293 650.714 121.293Z" fill="white"/>
<path d="M642.391 195.628V129.044H659.305V195.628H642.391Z" fill="white"/>
<path d="M697.967 197.507C691.524 197.507 685.662 196.164 680.382 193.48C675.191 190.795 671.074 186.902 668.031 181.8C664.988 176.699 663.467 170.524 663.467 163.275V161.395C663.467 154.146 664.988 147.971 668.031 142.87C671.074 137.768 675.191 133.875 680.382 131.19C685.662 128.506 691.524 127.163 697.967 127.163C704.322 127.163 709.781 128.282 714.345 130.519C718.909 132.757 722.579 135.844 725.353 139.782C728.217 143.63 730.096 148.016 730.991 152.938L714.614 156.428C714.256 153.743 713.45 151.327 712.197 149.179C710.944 147.031 709.154 145.331 706.828 144.078C704.59 142.825 701.771 142.198 698.37 142.198C694.969 142.198 691.882 142.959 689.107 144.481C686.422 145.912 684.275 148.105 682.664 151.058C681.142 153.922 680.382 157.457 680.382 161.664V163.006C680.382 167.212 681.142 170.792 682.664 173.746C684.275 176.61 686.422 178.802 689.107 180.324C691.882 181.756 694.969 182.472 698.37 182.472C703.471 182.472 707.32 181.174 709.915 178.578C712.6 175.894 714.3 172.403 715.016 168.107L731.394 172.001C730.231 176.744 728.217 181.084 725.353 185.022C722.579 188.87 718.909 191.913 714.345 194.151C709.781 196.388 704.322 197.507 697.967 197.507Z" fill="white"/>
<path d="M822.881 195.627V101.656H856.576L875.236 183.545H877.653V101.656H895.104V195.627H861.409L842.749 113.738H840.333V195.627H822.881Z" fill="white"/>
<path d="M897.722 195.627L922.423 101.656H953.299L978 195.627H959.743L954.642 174.953H921.081L915.979 195.627H897.722ZM925.242 158.576H950.48L939.069 112.798H936.653L925.242 158.576Z" fill="white"/>
</svg>
