<svg width="512" height="512" viewBox="0 0 512 512" fill="none" xmlns="http://www.w3.org/2000/svg">
<path d="M75 265.201C126.128 246.177 160.964 222.069 188.517 191.742C216.654 160.772 236.812 123.587 259.243 81C289.062 135.614 315.241 176.595 346.123 207.264C372.071 233.032 400.99 251.208 437.277 264.531C407.005 275.567 373.067 292.621 342.185 316.152C305.2 344.336 272.039 382.281 255.302 430.784C237.245 390.693 215.82 358.569 187.779 332.113C157.958 303.98 121.343 282.902 75 265.201Z" stroke="#393939" stroke-width="37.4769"/>
<path d="M255.947 301.13C278.374 301.13 296.554 281.037 296.554 256.25C296.554 231.463 278.374 211.369 255.947 211.369C233.521 211.369 215.341 231.463 215.341 256.25C215.341 281.037 233.521 301.13 255.947 301.13Z" fill="#393939"/>
</svg>
