<svg width="98" height="51" viewBox="0 0 98 51" fill="none" xmlns="http://www.w3.org/2000/svg">
<rect x="0.5" y="1" width="97" height="49" rx="15.5" stroke="white"/>
<g clip-path="url(#clip0_1576_462)">
<path d="M16.2837 33.5282C15.6226 34.8977 16.1893 36.5504 17.5587 37.2115C18.9282 37.8727 20.5337 37.306 21.1948 35.9365L22.281 33.7171L19.9198 25.9727L16.2837 33.5282Z" fill="#92C746"/>
<path d="M31.2526 8.78373C29.8832 8.12262 28.2776 8.68929 27.6165 10.0587L23.4609 18.7004L25.822 26.4448L32.5276 12.4671C33.1887 11.0976 32.622 9.44485 31.2526 8.78373Z" fill="#92C746"/>
<path d="M24.3122 40.5648C24.7372 42.0286 26.2955 42.8314 27.7122 42.4064C29.176 41.9814 29.9788 40.4231 29.5538 38.9592L25.776 26.4453L22.2344 33.7175L24.3122 40.5648Z" fill="#DA1966"/>
<path d="M22.0426 13.9776C21.6176 12.5137 20.0593 11.7109 18.6426 12.1359C17.1787 12.5609 16.376 14.1193 16.801 15.5831L19.9176 25.972L23.4593 18.6998L22.0426 13.9776Z" fill="#DA1965"/>
<path d="M19.9219 25.9724L22.283 33.7169L25.7774 26.4446L23.4635 18.7002L19.9219 25.9724Z" fill="#4AA948"/>
<path d="M29.3605 22.7411C29.3605 19.846 31.4973 19.5703 32.2556 19.5703C33.9788 19.5703 35.2885 20.6043 35.2885 22.3964C35.2885 23.9129 34.3235 24.6711 33.4274 25.2915C32.2556 26.1187 31.6352 26.5322 31.4284 26.9458H35.2885V28.5312H29.2227C29.2916 27.4972 29.3605 26.3944 31.2906 25.0158C32.8759 23.844 33.4963 23.4304 33.4963 22.3964C33.4963 21.7761 33.1517 21.1557 32.2556 21.1557C31.0148 21.1557 31.0148 22.1896 31.0148 22.81H29.3605V22.7411Z" fill="white"/>
<path d="M38.5286 23.3609H38.8043C39.3558 23.3609 40.3208 23.292 40.3208 22.1891C40.3208 21.8444 40.1829 21.0173 39.2179 21.0173C38.0461 21.0173 38.0461 22.1891 38.0461 22.4648H36.3918C36.3918 20.8105 37.3568 19.6387 39.3558 19.6387C40.5276 19.6387 42.1129 20.259 42.1129 22.1201C42.1129 23.0162 41.5615 23.5677 41.079 23.8434C41.4236 23.9123 42.3887 24.3948 42.3887 25.9113C42.3887 27.5656 41.1479 28.8063 39.3558 28.8063C38.5286 28.8063 36.2539 28.5996 36.2539 25.8424H37.9772C37.9772 26.3249 38.115 27.4277 39.2868 27.4277C39.9761 27.4277 40.5965 26.9452 40.5965 25.9802C40.5965 24.7395 39.4247 24.7395 38.5975 24.7395V23.3609H38.5286Z" fill="white"/>
<path d="M48.6587 27.1511C48.6587 27.9093 48.8655 28.1161 49.0723 28.1851V28.4608H47.2112C47.1422 28.1161 47.0733 28.0472 47.0733 27.7026C46.6597 28.1161 46.1083 28.6676 44.9365 28.6676C43.9714 28.6676 42.9375 28.1161 42.9375 26.7375C42.9375 25.4279 43.7647 24.7386 44.8675 24.6007L46.4529 24.3939C46.7286 24.325 47.0733 24.2561 47.0733 23.8425C47.0733 23.0842 46.384 23.0842 45.9015 23.0842C45.0054 23.0842 44.8675 23.6357 44.7986 23.9803H43.1443C43.3511 21.9124 44.7297 21.6367 46.1083 21.6367C47.0733 21.6367 48.7276 21.9124 48.7276 23.5668V27.1511H48.6587ZM47.0044 25.2211C46.7976 25.3589 46.5219 25.4968 45.8326 25.5657C45.2122 25.7036 44.6607 25.8414 44.6607 26.5997C44.6607 27.22 45.1433 27.4268 45.4879 27.4268C46.2461 27.4268 47.0733 26.9443 47.0733 26.1172V25.2211H47.0044Z" fill="white"/>
<path d="M55.9643 28.4619H54.241V24.3951C54.241 23.9125 54.241 23.0854 53.1381 23.0854C52.3799 23.0854 51.7595 23.6368 51.7595 24.6018V28.393H49.8984V21.7068H51.5528V22.6718C51.7595 22.2582 52.311 21.5 53.5517 21.5C54.8614 21.5 55.8953 22.2582 55.8953 23.7058V28.4619H55.9643Z" fill="white"/>
<path d="M63.3466 28.4609H61.6234V27.6337C61.2098 28.392 60.4515 28.6677 59.6933 28.6677C57.6943 28.6677 56.8672 26.9444 56.8672 25.0833C56.8672 22.8086 58.1769 21.6368 59.6244 21.6368C60.7273 21.6368 61.2787 22.2572 61.5544 22.6708V19.5H63.2777V28.4609H63.3466ZM60.1069 27.2201C61.2098 27.2201 61.6234 26.3241 61.6234 25.2901C61.6234 24.2562 61.3476 23.1533 60.1069 23.1533C59.004 23.1533 58.5904 24.1183 58.5904 25.2212C58.6594 25.9794 59.004 27.2201 60.1069 27.2201Z" fill="white"/>
<path d="M74.096 28.4609H72.2349V20.9475L70.4427 28.4609H68.4437L66.7205 20.9475V28.4609H64.8594V19.5H67.7544L69.4777 26.5998L71.2009 19.5H74.096V28.4609Z" fill="white"/>
<path d="M81.6138 26.5307C81.1313 28.1161 79.8217 28.6676 78.7188 28.6676C76.8577 28.6676 75.4102 27.7715 75.4102 25.0143C75.4102 24.1871 75.6859 21.6367 78.5809 21.6367C79.8906 21.6367 81.6828 22.2571 81.6828 25.29V25.6347H77.1334C77.2023 26.1172 77.2713 27.289 78.7188 27.289C79.2013 27.289 79.6838 27.0133 79.8217 26.5307H81.6138ZM79.8906 24.4628C79.8217 23.36 79.1324 23.0842 78.512 23.0842C77.6848 23.0842 77.2713 23.6357 77.1334 24.4628H79.8906Z" fill="white"/>
</g>
<defs>
<clipPath id="clip0_1576_462">
<rect width="66" height="34" fill="white" transform="translate(16 8.5)"/>
</clipPath>
</defs>
</svg>
