<svg width="137" height="51" viewBox="0 0 137 51" fill="none" xmlns="http://www.w3.org/2000/svg">
<rect x="0.5" y="1" width="136" height="49" rx="15.5" stroke="white"/>
<g clip-path="url(#clip0_1576_477)">
<path fill-rule="evenodd" clip-rule="evenodd" d="M46.0624 24.5124C44.9244 24.6547 44.2131 24.9866 43.739 25.4609C43.3595 25.8401 43.17 26.3143 43.17 26.7884C43.17 27.6419 43.7864 28.2584 44.5451 28.2584C45.0191 28.2584 45.4933 28.0685 45.7304 27.7843C45.8252 27.6893 45.9201 27.4997 45.9201 27.3101L46.0624 24.5124ZM48.0064 29.5859C47.0581 29.5859 46.2044 28.9695 45.9675 28.0214C45.4933 28.8747 44.5924 29.5859 43.4071 29.5859C42.0794 29.5859 40.9414 28.5428 40.9414 27.2152C40.9414 25.3659 42.6959 24.0384 46.0149 23.9909V23.5168C46.0623 22.1892 45.3037 21.3829 43.976 21.3829C43.0275 21.3829 42.032 21.9996 41.3682 22.8055C41.3208 22.8529 41.0363 22.5686 41.0363 22.521C41.8897 20.8142 43.4545 19.8658 45.0666 19.8658C46.9156 19.8658 48.2434 21.1935 48.1959 23.4219L48.054 27.1204C48.054 27.974 48.4332 28.3532 48.8598 28.3532C49.3339 28.3532 49.6658 27.9739 49.8555 27.4521C49.8555 27.4048 50.1399 27.547 50.1399 27.5944C50.1399 28.8747 49.1919 29.5859 48.0064 29.5859ZM59.8127 29.254H57.2998C57.2523 29.254 57.2523 28.7799 57.2998 28.7799C58.3429 28.6376 58.4852 28.5428 58.4852 26.504V23.6591C58.4852 22.3788 57.7266 21.478 56.6359 21.478C55.8774 21.478 55.166 21.8573 54.8341 22.3315C54.597 22.616 54.4548 23.1376 54.4548 23.8014V26.504C54.4548 28.5429 54.6917 28.6376 55.7351 28.7799C55.7351 28.7799 55.7824 29.254 55.7351 29.254H50.8985C50.8512 29.254 50.8512 28.7799 50.8512 28.7799C51.9891 28.5901 52.1315 28.5428 52.1315 26.504V23.0426C52.1315 20.9563 51.8943 20.8615 50.6613 20.6719C50.5666 20.6719 50.614 20.1977 50.6613 20.1977H54.265V22.284H54.3126C55.1187 20.7666 56.3515 19.8657 57.8687 19.8657C59.5758 19.8657 60.9033 21.1934 60.9033 23.3745V26.4566C60.9033 28.4955 61.0929 28.5902 62.2309 28.7326C62.3257 28.7326 62.2783 29.2066 62.2309 29.2066C61.5197 29.254 60.4766 29.254 59.8127 29.254ZM67.4466 29.5859C64.6018 29.5859 62.7526 27.3574 62.7526 24.797C62.7526 22.0469 64.6018 19.8657 67.6365 19.8657C69.0589 19.8657 69.7701 20.3399 70.1969 20.3399C70.3865 20.3399 70.5762 20.1977 70.671 19.9606C70.671 19.9131 71.2401 19.9131 71.2401 19.9606V23.3745C71.2401 23.4219 70.6711 23.4219 70.6711 23.3745C69.9125 21.8097 68.8693 20.4822 67.6367 20.4822C66.1191 20.4822 65.2183 22.0943 65.2183 24.3227C65.2183 26.6935 66.451 28.2584 68.1581 28.2584C69.296 28.2584 70.5764 27.4523 71.0978 26.5513C71.1452 26.4564 71.5246 26.6463 71.5246 26.7412C70.9083 28.3532 69.2958 29.5859 67.4466 29.5859ZM78.9687 23.5642V22.9003C78.9687 21.4304 78.2575 20.577 77.3566 20.577C76.2185 20.577 75.3651 21.8097 75.1754 23.5642H78.9687ZM75.1754 24.6546C75.1754 26.6935 76.3135 28.2582 78.2574 28.2582C79.3954 28.2582 80.5332 27.4996 81.1498 26.5512C81.1498 26.5039 81.529 26.6461 81.529 26.741C81.0077 28.3532 79.3005 29.5858 77.4039 29.5858C74.4169 29.5858 72.6625 27.4047 72.6625 24.7969C72.6625 22.1891 74.5117 19.8657 77.6411 19.8657C80.0118 19.8657 81.5767 21.4304 81.7189 23.5642V24.228H75.2704C75.1755 24.3227 75.1754 24.5596 75.1754 24.6546ZM86.4605 29.5859C84.9905 29.5859 83.7103 29.2068 83.2836 28.9221C83.2362 28.8747 83.094 27.6419 83.094 26.4091C83.094 26.3618 83.6629 26.3142 83.6629 26.4091C84.4215 28.0686 85.5121 29.0169 86.6975 29.0169C87.6932 29.0169 88.4044 28.4955 88.4044 27.6893C88.4044 26.7411 87.2664 26.3143 86.1286 25.7927C84.7534 25.2712 83.1889 24.5599 83.1889 22.8057C83.1889 21.4304 84.3743 20.008 86.6028 20.008C87.5513 20.008 88.1674 20.3873 88.5943 20.3873C88.7839 20.3873 88.9735 20.2451 89.1156 20.008C89.1156 19.9606 89.6847 19.9606 89.6847 20.008V23.1376C89.6847 23.1849 89.1156 23.1849 89.1156 23.1376C88.357 21.715 87.4562 20.7193 86.3656 20.7193C85.3698 20.7193 84.8954 21.3831 84.8954 21.9048C84.8954 22.853 85.9861 23.2323 87.124 23.7066C88.4991 24.2755 90.1112 24.9869 90.1112 26.7885C90.1112 28.3057 88.6891 29.5859 86.4605 29.5859ZM91.1545 21.1933C91.0124 21.1933 90.9649 20.8139 91.1072 20.7192C92.1029 19.8182 93.7625 18.301 94.6632 17.3526C94.7107 17.3051 95.0426 17.3526 95.0426 17.4475V20.2449H98.2669C98.3618 20.2449 98.3618 21.1458 98.2669 21.1458H95.0426V26.4089C95.0426 27.5943 95.7539 28.1158 96.5125 28.1158C97.0815 28.1158 97.6979 27.6419 97.9825 27.0727C97.9825 27.0254 98.3618 27.215 98.3618 27.2626C97.9826 28.5429 96.7497 29.5383 95.3747 29.5383C93.9047 29.5383 92.7193 28.5901 92.7193 26.7408V21.1932L91.1545 21.1933ZM106.138 22.7108C105.853 22.7108 105.142 21.8573 104.621 21.8573C104.383 21.8573 104.099 21.9995 103.862 22.2366C103.483 22.6159 103.151 23.5169 103.151 24.2755V26.5514C103.151 28.6377 103.483 28.6851 104.573 28.8272C104.573 28.8272 104.621 29.3013 104.573 29.3013H99.5475C99.5 29.3013 99.5 28.8273 99.5475 28.8273C100.685 28.6376 100.828 28.5901 100.828 26.5515V23.0899C100.828 21.051 100.591 20.9088 99.3578 20.7192C99.2628 20.7192 99.3103 20.2449 99.3578 20.2449H103.009V22.6157H103.103C103.198 22.3312 103.388 21.9993 103.53 21.6674C104.194 20.5768 105 19.9129 105.854 19.9129C106.66 19.9129 107.324 20.5294 107.324 21.1932C107.371 21.9518 106.375 22.7108 106.138 22.7108ZM115.953 23.9434L112.871 31.8619C111.78 34.6594 110.785 35.2285 109.457 35.2285C108.698 35.2285 107.845 34.8491 107.845 34.6121C107.797 34.2327 108.319 32.8577 108.603 32.8577C108.698 32.8577 109.836 33.3791 110.405 33.3791C111.211 33.3791 111.733 32.8577 112.159 31.7197L112.729 30.2023C112.539 29.4437 110.263 24.4651 109.978 23.8011C109.409 22.4734 109.03 21.4304 108.651 21.051C108.414 20.8138 108.177 20.7192 107.513 20.6242C107.466 20.6242 107.466 20.15 107.513 20.15C108.129 20.15 109.41 20.1974 110.121 20.1974C110.832 20.1974 112.065 20.1499 112.681 20.1499C112.729 20.1499 112.729 20.6242 112.681 20.6242C111.259 20.8137 111.401 21.2878 112.16 23.1846L113.819 27.2148L115.147 23.7535C115.621 22.5681 115.858 21.8569 115.858 21.4301C115.858 20.9084 115.526 20.7188 114.53 20.6715C114.483 20.6715 114.483 20.1498 114.53 20.1498C115.194 20.1498 116.048 20.1972 116.617 20.1972C117.043 20.1972 117.47 20.1497 118.276 20.1497C118.324 20.1497 118.371 20.6714 118.276 20.6714C117.755 20.7187 117.518 20.8609 117.233 21.1454C116.854 21.5248 116.569 22.2839 115.953 23.9434Z" fill="white"/>
<path fill-rule="evenodd" clip-rule="evenodd" d="M30.1774 19.6285C28.5178 17.8267 26.8584 18.1113 26.5739 18.1586C26.7161 18.206 26.8584 21.3355 28.6128 22.995C29.7981 24.0854 32.2163 23.7061 32.2163 23.7061C32.2163 23.7061 31.7895 21.3829 30.1774 19.6285ZM32.1691 25.7452C31.6474 25.7452 29.5137 25.9349 28.0913 27.6892C26.6214 29.5385 26.6687 31.0084 26.3368 31.3402C26.6214 31.4352 29.6085 31.7195 30.8888 29.7756C32.1215 27.9735 32.1691 26.0297 32.1691 25.7452ZM19.177 24.4647C19.5088 24.5123 20.6469 25.9822 22.6858 26.1718C24.9143 26.4091 25.6729 25.2711 25.7204 25.2711C25.7204 25.1288 23.9186 23.1848 21.9272 23.1848C20.5519 23.2321 19.177 24.4647 19.177 24.4647ZM27.285 25.4607C27.2376 25.5081 25.3885 27.9737 21.0262 27.3099C17.5174 26.7409 16.2372 24.7967 16 24.7494C16.2845 24.37 18.9399 22.2363 22.0218 22.2837C25.0565 22.3786 27.2849 24.0855 27.2849 24.0855H29.2289C27.6643 23.6114 25.7677 22.7579 24.9142 20.8613C24.1556 19.107 24.2978 18.0638 23.9659 16.594C23.9659 16.594 27.4746 16.3094 30.1774 18.0638C32.643 19.6759 34.018 23.9433 34.0655 24.0855H35.5826L35.2509 16.499L37.1475 16.5464C36.8157 18.5379 37.2424 32.7626 37.1475 32.7626C36.9579 32.8099 35.3457 32.9046 35.2035 32.5254C35.2035 32.5254 35.5828 25.5553 35.6303 25.413H34.1602C34.1602 25.508 34.018 29.4434 31.0309 31.5297C28.0435 33.616 23.7288 32.9995 23.7288 32.9995C24.2505 32.1935 23.7288 31.34 25.246 29.0167C27.0005 26.3614 29.3238 25.413 29.2765 25.413C29.1343 25.4606 27.3326 25.4607 27.285 25.4607Z" fill="#9CBE30"/>
<path fill-rule="evenodd" clip-rule="evenodd" d="M120.114 21.0245C120.252 21.0245 120.348 20.9742 120.348 20.8549C120.348 20.7496 120.293 20.681 120.128 20.681H119.981V21.0246L120.114 21.0245ZM119.835 20.5526H120.151C120.33 20.5526 120.504 20.6168 120.504 20.8459C120.504 20.9604 120.426 21.0705 120.32 21.1025L120.545 21.4964H120.375L120.197 21.1482H119.981V21.4964H119.835V20.5526ZM120.838 21.0428C120.838 20.6029 120.531 20.2776 120.146 20.2776C119.762 20.2776 119.454 20.6029 119.454 21.0428C119.454 21.478 119.761 21.7942 120.146 21.7942C120.531 21.7942 120.838 21.4781 120.838 21.0428ZM119.312 21.0428C119.312 20.5067 119.693 20.1494 120.146 20.1494C120.604 20.1494 120.98 20.5068 120.98 21.0429C120.98 21.5744 120.604 21.9272 120.146 21.9272C119.693 21.9272 119.312 21.5743 119.312 21.0428Z" fill="#54524F"/>
</g>
<defs>
<clipPath id="clip0_1576_477">
<rect width="105" height="18.8004" fill="white" transform="translate(16 16.5)"/>
</clipPath>
</defs>
</svg>
