<svg width="113" height="149" viewBox="0 0 113 149" fill="none" xmlns="http://www.w3.org/2000/svg">
<path d="M21.7302 81.2121C18.4201 79.5849 18.4299 74.4416 21.7121 72.7592C29.4375 68.7992 35.3619 64.1344 40.3355 58.6572C45.8689 52.5634 50.166 45.5063 54.4783 37.5851C56.0047 34.7812 60.041 34.7473 61.6312 37.5154C67.6351 47.9668 73.2474 56.1458 79.6763 62.5337C83.599 66.4312 87.7936 69.6333 92.5041 72.2918C95.75 74.1238 95.7376 79.5016 92.4107 81.182C87.7985 83.5116 83.1201 86.3531 78.6932 89.7279C71.9328 94.8822 65.6841 101.344 61.1824 109.191C59.3799 112.333 54.2408 112.509 52.4184 109.378C48.9254 103.378 44.9219 98.2173 40.1513 93.7139C34.9297 88.7853 28.8736 84.7237 21.7302 81.2121Z" stroke="white"/>
<path d="M57.96 88.5708C64.7859 88.5708 70.3193 83.3474 70.3193 76.9041C70.3193 70.4608 64.7859 65.2374 57.96 65.2374C51.1341 65.2374 45.6006 70.4608 45.6006 76.9041C45.6006 83.3474 51.1341 88.5708 57.96 88.5708Z" fill="white" stroke="white" stroke-width="0.5"/>
</svg>
